<svg width="12" height="12" viewBox="0 0 12 12" fill="none" xmlns="http://www.w3.org/2000/svg">
<path fill-rule="evenodd" clip-rule="evenodd" d="M6.59995 1.79995C6.59995 1.46858 6.33132 1.19995 5.99995 1.19995C5.66858 1.19995 5.39995 1.46858 5.39995 1.79995V5.39995H1.79995C1.46858 5.39995 1.19995 5.66858 1.19995 5.99995C1.19995 6.33132 1.46858 6.59995 1.79995 6.59995H5.39995V10.2C5.39995 10.5313 5.66858 10.8 5.99995 10.8C6.33132 10.8 6.59995 10.5313 6.59995 10.2V6.59995H10.2C10.5313 6.59995 10.8 6.33132 10.8 5.99995C10.8 5.66858 10.5313 5.39995 10.2 5.39995H6.59995V1.79995Z" fill="#09132E"/>
</svg>
