<svg xmlns="http://www.w3.org/2000/svg" width="12" height="12" viewBox="0 0 12 12" fill="none">
  <path fill-rule="evenodd" clip-rule="evenodd" d="M6.59922 1.8C6.59922 1.46863 6.33059 1.2 5.99922 1.2C5.66785 1.2 5.39922 1.46863 5.39922 1.8V5.4H1.79922C1.46785 5.4 1.19922 5.66863 1.19922 6C1.19922 6.33137 1.46785 6.6 1.79922 6.6H5.39922V10.2C5.39922 10.5314 5.66785 10.8 5.99922 10.8C6.33059 10.8 6.59922 10.5314 6.59922 10.2V6.6H10.1992C10.5306 6.6 10.7992 6.33137 10.7992 6C10.7992 5.66863 10.5306 5.4 10.1992 5.4H6.59922V1.8Z" fill="#2D5DE0"/>
</svg>