<svg width="24" height="24" viewBox="0 0 24 24" fill="none" xmlns="http://www.w3.org/2000/svg">
<path d="M17 14.016C14.9242 14.1434 12.9666 15.0255 11.496 16.496C10.0255 17.9666 9.14339 19.9242 9.016 22H8.984C8.85682 19.9241 7.97483 17.9664 6.5042 16.4958C5.03358 15.0252 3.07588 14.1432 1 14.016L1 13.984C3.07588 13.8568 5.03358 12.9748 6.5042 11.5042C7.97483 10.0336 8.85682 8.07588 8.984 6H9.016C9.14339 8.07581 10.0255 10.0334 11.496 11.504C12.9666 12.9745 14.9242 13.8566 17 13.984V14.016Z" fill="#BACAF5"/>
<path d="M23 6.01C21.7026 6.08962 20.4791 6.64091 19.56 7.56002C18.6409 8.47913 18.0896 9.70262 18.01 11H17.99C17.9105 9.70257 17.3593 8.47901 16.4401 7.55987C15.521 6.64073 14.2974 6.08949 13 6.01V5.99C14.2974 5.91051 15.521 5.35927 16.4401 4.44013C17.3593 3.52099 17.9105 2.29743 17.99 1L18.01 1C18.0896 2.29738 18.6409 3.52087 19.56 4.43998C20.4791 5.35909 21.7026 5.91038 23 5.99V6.01Z" fill="#9DB4F5"/>
</svg>
