<svg xmlns="http://www.w3.org/2000/svg" width="12" height="13" viewBox="0 0 12 13" fill="none">
  <path fill-rule="evenodd" clip-rule="evenodd" d="M3.72592 2.23226L3.77583 2.17574C3.99212 1.95945 4.33246 1.94281 4.56784 2.12582L4.62436 2.17574L8.22436 5.77574C8.44065 5.99203 8.45729 6.33236 8.27427 6.56774L8.22436 6.62426L4.62436 10.2243C4.39005 10.4586 4.01015 10.4586 3.77583 10.2243C3.55954 10.008 3.54291 9.66763 3.72592 9.43226L3.77583 9.37574L6.9511 6.2L3.77583 3.02426C3.55954 2.80797 3.54291 2.46764 3.72592 2.23226L3.77583 2.17574L3.72592 2.23226Z" fill="white"/>
  <mask id="mask0_3570_28702" style="mask-type:luminance" maskUnits="userSpaceOnUse" x="3" y="2" width="6" height="9">
    <path fill-rule="evenodd" clip-rule="evenodd" d="M3.72592 2.23226L3.77583 2.17574C3.99212 1.95945 4.33246 1.94281 4.56784 2.12582L4.62436 2.17574L8.22436 5.77574C8.44065 5.99203 8.45729 6.33236 8.27427 6.56774L8.22436 6.62426L4.62436 10.2243C4.39005 10.4586 4.01015 10.4586 3.77583 10.2243C3.55954 10.008 3.54291 9.66763 3.72592 9.43226L3.77583 9.37574L6.9511 6.2L3.77583 3.02426C3.55954 2.80797 3.54291 2.46764 3.72592 2.23226L3.77583 2.17574L3.72592 2.23226Z" fill="white"/>
  </mask>
  <g mask="url(#mask0_3570_28702)">
  </g>
</svg>