<svg width="16" height="16" viewBox="0 0 16 16" fill="none" xmlns="http://www.w3.org/2000/svg">
<rect width="16" height="16"/>
<path fill-rule="evenodd" clip-rule="evenodd" d="M1.83392 5.03436C2.12231 4.74598 2.5761 4.72379 2.88993 4.96781L2.96529 5.03436L7.99961 10.068L13.0339 5.03436C13.3223 4.74598 13.7761 4.72379 14.0899 4.96781L14.1653 5.03436C14.4537 5.32275 14.4759 5.77654 14.2318 6.09037L14.1653 6.16573L8.56529 11.7657C8.44513 11.8859 8.29626 11.9598 8.14075 11.9876L8.04683 11.9987H7.95238C7.79511 11.9894 7.64005 11.934 7.50929 11.8323L7.43392 11.7657L1.83392 6.16573C1.5215 5.85331 1.5215 5.34678 1.83392 5.03436Z" fill="#6D82BB"/>
<mask id="mask0_3129_19279" style="mask-type:luminance" maskUnits="userSpaceOnUse" x="1" y="4" width="14" height="8">
<path fill-rule="evenodd" clip-rule="evenodd" d="M1.83392 5.03436C2.12231 4.74598 2.5761 4.72379 2.88993 4.96781L2.96529 5.03436L7.99961 10.068L13.0339 5.03436C13.3223 4.74598 13.7761 4.72379 14.0899 4.96781L14.1653 5.03436C14.4537 5.32275 14.4759 5.77654 14.2318 6.09037L14.1653 6.16573L8.56529 11.7657C8.44513 11.8859 8.29626 11.9598 8.14075 11.9876L8.04683 11.9987H7.95238C7.79511 11.9894 7.64005 11.934 7.50929 11.8323L7.43392 11.7657L1.83392 6.16573C1.5215 5.85331 1.5215 5.34678 1.83392 5.03436Z" fill="white"/>
</mask>
<g mask="url(#mask0_3129_19279)">
</g>
</svg>
