<svg xmlns="http://www.w3.org/2000/svg" width="12" height="12" viewBox="0 0 12 12" fill="none">
  <path fill-rule="evenodd" clip-rule="evenodd" d="M6.03464 3.60104C6.17618 3.60936 6.31534 3.66759 6.42348 3.77574L10.6235 7.97574C10.8578 8.21005 10.8578 8.58995 10.6235 8.82426C10.3892 9.05858 10.0093 9.05858 9.77496 8.82426L5.99922 5.04884L2.22348 8.82426C2.00719 9.04055 1.66685 9.05719 1.43148 8.87418L1.37495 8.82426C1.14064 8.58995 1.14064 8.21005 1.37495 7.97574L5.57495 3.77574C5.6831 3.66759 5.82226 3.60936 5.9638 3.60104H6.03464Z" fill="#11338F"/>
  <mask id="mask0_3526_25946" style="mask-type:luminance" maskUnits="userSpaceOnUse" x="1" y="3" width="10" height="6">
    <path fill-rule="evenodd" clip-rule="evenodd" d="M6.03464 3.60104C6.17618 3.60936 6.31534 3.66759 6.42348 3.77574L10.6235 7.97574C10.8578 8.21005 10.8578 8.58995 10.6235 8.82426C10.3892 9.05858 10.0093 9.05858 9.77496 8.82426L5.99922 5.04884L2.22348 8.82426C2.00719 9.04055 1.66685 9.05719 1.43148 8.87418L1.37495 8.82426C1.14064 8.58995 1.14064 8.21005 1.37495 7.97574L5.57495 3.77574C5.6831 3.66759 5.82226 3.60936 5.9638 3.60104H6.03464Z" fill="white"/>
  </mask>
  <g mask="url(#mask0_3526_25946)">
  </g>
</svg>