<svg xmlns="http://www.w3.org/2000/svg" width="12" height="12" viewBox="0 0 12 12" fill="none">
  <path fill-rule="evenodd" clip-rule="evenodd" d="M1.37593 3.77535C1.59222 3.55905 1.93256 3.54242 2.16794 3.72543L2.22446 3.77535L6.0002 7.55061L9.77593 3.77535C9.99222 3.55905 10.3326 3.54242 10.5679 3.72543L10.6245 3.77535C10.8407 3.99164 10.8574 4.33197 10.6744 4.56735L10.6245 4.62387L6.42446 8.82387C6.33434 8.91399 6.22268 8.96945 6.10605 8.99025L6.03561 8.99857H5.96478C5.84682 8.99164 5.73053 8.95004 5.63246 8.87379L5.57593 8.82387L1.37593 4.62387C1.14162 4.38956 1.14162 4.00966 1.37593 3.77535Z" fill="#2D5DE0"/>
  <mask id="mask0_3526_3533" style="mask-type:luminance" maskUnits="userSpaceOnUse" x="1" y="3" width="10" height="6">
    <path fill-rule="evenodd" clip-rule="evenodd" d="M1.37593 3.77535C1.59222 3.55905 1.93256 3.54242 2.16794 3.72543L2.22446 3.77535L6.0002 7.55061L9.77593 3.77535C9.99222 3.55905 10.3326 3.54242 10.5679 3.72543L10.6245 3.77535C10.8407 3.99164 10.8574 4.33197 10.6744 4.56735L10.6245 4.62387L6.42446 8.82387C6.33434 8.91399 6.22268 8.96945 6.10605 8.99025L6.03561 8.99857H5.96478C5.84682 8.99164 5.73053 8.95004 5.63246 8.87379L5.57593 8.82387L1.37593 4.62387C1.14162 4.38956 1.14162 4.00966 1.37593 3.77535Z" fill="white"/>
  </mask>
  <g mask="url(#mask0_3526_3533)">
  </g>
</svg>