<svg width="16" height="16" viewBox="0 0 16 16" fill="none" xmlns="http://www.w3.org/2000/svg">
<rect width="16" height="16"/>
<path fill-rule="evenodd" clip-rule="evenodd" d="M8.04683 4.80127C8.23556 4.81236 8.4211 4.89 8.56529 5.0342L14.1653 10.6342C14.4777 10.9466 14.4777 11.4531 14.1653 11.7656C13.8529 12.078 13.3463 12.078 13.0339 11.7656L7.99961 6.73167L2.96529 11.7656C2.67691 12.054 2.22312 12.0761 1.90929 11.8321L1.83392 11.7656C1.5215 11.4531 1.5215 10.9466 1.83392 10.6342L7.43392 5.0342C7.57812 4.89 7.76366 4.81236 7.95238 4.80127H8.04683Z" fill="#6D82BB"/>
<mask id="mask0_3129_18064" style="mask-type:luminance" maskUnits="userSpaceOnUse" x="1" y="4" width="14" height="8">
<path fill-rule="evenodd" clip-rule="evenodd" d="M8.04683 4.80127C8.23556 4.81236 8.4211 4.89 8.56529 5.0342L14.1653 10.6342C14.4777 10.9466 14.4777 11.4531 14.1653 11.7656C13.8529 12.078 13.3463 12.078 13.0339 11.7656L7.99961 6.73167L2.96529 11.7656C2.67691 12.054 2.22312 12.0761 1.90929 11.8321L1.83392 11.7656C1.5215 11.4531 1.5215 10.9466 1.83392 10.6342L7.43392 5.0342C7.57812 4.89 7.76366 4.81236 7.95238 4.80127H8.04683Z" fill="white"/>
</mask>
<g mask="url(#mask0_3129_18064)">
</g>
</svg>
