<svg xmlns="http://www.w3.org/2000/svg" width="12" height="12" viewBox="0 0 12 12" fill="none">
  <path fill-rule="evenodd" clip-rule="evenodd" d="M3.72592 2.03226L3.77583 1.97574C3.99212 1.75945 4.33246 1.74281 4.56784 1.92583L4.62436 1.97574L8.22436 5.57574C8.44065 5.79203 8.45729 6.13237 8.27427 6.36774L8.22436 6.42427L4.62436 10.0243C4.39005 10.2586 4.01015 10.2586 3.77583 10.0243C3.55954 9.80798 3.54291 9.46764 3.72592 9.23226L3.77583 9.17574L6.9511 6L3.77583 2.82427C3.55954 2.60798 3.54291 2.26764 3.72592 2.03226L3.77583 1.97574L3.72592 2.03226Z" fill="white"/>
  <mask id="mask0_2133_2929" style="mask-type:luminance" maskUnits="userSpaceOnUse" x="3" y="1" width="6" height="10">
    <path fill-rule="evenodd" clip-rule="evenodd" d="M3.72592 2.03226L3.77583 1.97574C3.99212 1.75945 4.33246 1.74281 4.56784 1.92583L4.62436 1.97574L8.22436 5.57574C8.44065 5.79203 8.45729 6.13237 8.27427 6.36774L8.22436 6.42427L4.62436 10.0243C4.39005 10.2586 4.01015 10.2586 3.77583 10.0243C3.55954 9.80798 3.54291 9.46764 3.72592 9.23226L3.77583 9.17574L6.9511 6L3.77583 2.82427C3.55954 2.60798 3.54291 2.26764 3.72592 2.03226L3.77583 1.97574L3.72592 2.03226Z" fill="white"/>
  </mask>
  <g mask="url(#mask0_2133_2929)">
  </g>
</svg>