<svg xmlns="http://www.w3.org/2000/svg" width="24" height="24" viewBox="0 0 24 24" fill="none">
  <path fill-rule="evenodd" clip-rule="evenodd" d="M11.9992 22.8002C17.9639 22.8002 22.7992 17.9649 22.7992 12.0002C22.7992 6.03552 17.9639 1.2002 11.9992 1.2002C6.03454 1.2002 1.19922 6.03552 1.19922 12.0002C1.19922 17.9649 6.03454 22.8002 11.9992 22.8002ZM11.9992 19.5602C7.82395 19.5602 4.43922 16.1755 4.43922 12.0002C4.43922 7.82492 7.82395 4.4402 11.9992 4.4402C16.1745 4.4402 19.5592 7.82492 19.5592 12.0002C19.5592 16.1755 16.1745 19.5602 11.9992 19.5602ZM11.9992 16.3202C14.3851 16.3202 16.3192 14.3861 16.3192 12.0002C16.3192 9.61433 14.3851 7.6802 11.9992 7.6802C9.61335 7.6802 7.67922 9.61433 7.67922 12.0002C7.67922 14.3861 9.61335 16.3202 11.9992 16.3202Z" fill="#6D82BB"/>
  <mask id="mask0_3570_11766" style="mask-type:luminance" maskUnits="userSpaceOnUse" x="1" y="1" width="22" height="22">
    <path fill-rule="evenodd" clip-rule="evenodd" d="M11.9992 22.8002C17.9639 22.8002 22.7992 17.9649 22.7992 12.0002C22.7992 6.03552 17.9639 1.2002 11.9992 1.2002C6.03454 1.2002 1.19922 6.03552 1.19922 12.0002C1.19922 17.9649 6.03454 22.8002 11.9992 22.8002ZM11.9992 19.5602C7.82395 19.5602 4.43922 16.1755 4.43922 12.0002C4.43922 7.82492 7.82395 4.4402 11.9992 4.4402C16.1745 4.4402 19.5592 7.82492 19.5592 12.0002C19.5592 16.1755 16.1745 19.5602 11.9992 19.5602ZM11.9992 16.3202C14.3851 16.3202 16.3192 14.3861 16.3192 12.0002C16.3192 9.61433 14.3851 7.6802 11.9992 7.6802C9.61335 7.6802 7.67922 9.61433 7.67922 12.0002C7.67922 14.3861 9.61335 16.3202 11.9992 16.3202Z" fill="white"/>
  </mask>
  <g mask="url(#mask0_3570_11766)">
  </g>
</svg>