<svg xmlns="http://www.w3.org/2000/svg" width="16" height="16" viewBox="0 0 16 16" fill="none">
  <path fill-rule="evenodd" clip-rule="evenodd" d="M14.3996 3.6C14.3996 2.49544 13.5042 1.60001 12.3996 1.60001H3.59961C2.49504 1.60001 1.59961 2.49544 1.59961 3.60001V10.4032C1.59961 11.2869 2.31595 12.0032 3.19961 12.0032V13.4033C3.19961 13.8147 3.66877 14.0501 3.99856 13.8041L6.41289 12.0032H12.3996C13.5042 12.0032 14.3996 11.1078 14.3996 10.0032V3.6ZM4.79961 4.80001C4.79961 4.35818 5.15778 4.00001 5.59961 4.00001H10.3996C10.8414 4.00001 11.1996 4.35818 11.1996 4.80001C11.1996 5.24183 10.8414 5.60001 10.3996 5.60001H5.59961C5.15778 5.60001 4.79961 5.24183 4.79961 4.80001ZM5.59961 7.20001C5.15778 7.20001 4.79961 7.55818 4.79961 8.00001C4.79961 8.44183 5.15778 8.80001 5.59961 8.80001H10.3996C10.8414 8.80001 11.1996 8.44183 11.1996 8.00001C11.1996 7.55818 10.8414 7.20001 10.3996 7.20001H5.59961Z" fill="#6D82BB"/>
</svg>