<svg xmlns="http://www.w3.org/2000/svg" width="24" height="24" viewBox="0 0 24 24" fill="none">
  <path fill-rule="evenodd" clip-rule="evenodd" d="M2.75147 7.55147C3.18405 7.11889 3.86472 7.08562 4.33547 7.45165L4.44852 7.55147L12 15.102L19.5515 7.55147C19.984 7.11889 20.6647 7.08562 21.1355 7.45165L21.2485 7.55147C21.6811 7.98405 21.7144 8.66473 21.3483 9.13548L21.2485 9.24853L12.8485 17.6485C12.6683 17.8288 12.445 17.9397 12.2117 17.9813L12.0708 17.9979H11.9292C11.6933 17.9841 11.4607 17.9009 11.2645 17.7484L11.1515 17.6485L2.75147 9.24853C2.28284 8.7799 2.28284 8.0201 2.75147 7.55147Z" fill="#6D82BB"/>
  <mask id="mask0_2281_86" style="mask-type:luminance" maskUnits="userSpaceOnUse" x="2" y="7" width="20" height="11">
    <path fill-rule="evenodd" clip-rule="evenodd" d="M2.75147 7.55147C3.18405 7.11889 3.86472 7.08562 4.33547 7.45165L4.44852 7.55147L12 15.102L19.5515 7.55147C19.984 7.11889 20.6647 7.08562 21.1355 7.45165L21.2485 7.55147C21.6811 7.98405 21.7144 8.66473 21.3483 9.13548L21.2485 9.24853L12.8485 17.6485C12.6683 17.8288 12.445 17.9397 12.2117 17.9813L12.0708 17.9979H11.9292C11.6933 17.9841 11.4607 17.9009 11.2645 17.7484L11.1515 17.6485L2.75147 9.24853C2.28284 8.7799 2.28284 8.0201 2.75147 7.55147Z" fill="white"/>
  </mask>
  <g mask="url(#mask0_2281_86)">
  </g>
</svg>