<svg xmlns="http://www.w3.org/2000/svg" width="24" height="24" viewBox="0 0 24 24" fill="none">
  <path fill-rule="evenodd" clip-rule="evenodd" d="M12.0709 7.20208C12.3539 7.21872 12.6323 7.33518 12.8486 7.55147L21.2486 15.9515C21.7172 16.4201 21.7172 17.1799 21.2486 17.6485C20.7799 18.1172 20.0201 18.1172 19.5515 17.6485L12 10.0977L4.44855 17.6485C4.01597 18.0811 3.33529 18.1144 2.86455 17.7484L2.7515 17.6485C2.28287 17.1799 2.28287 16.4201 2.7515 15.9515L11.1515 7.55147C11.3678 7.33518 11.6461 7.21872 11.9292 7.20208H12.0709Z" fill="#6D82BB"/>
  <mask id="mask0_2281_1732" style="mask-type:luminance" maskUnits="userSpaceOnUse" x="2" y="7" width="20" height="11">
    <path fill-rule="evenodd" clip-rule="evenodd" d="M12.0709 7.20208C12.3539 7.21872 12.6323 7.33518 12.8486 7.55147L21.2486 15.9515C21.7172 16.4201 21.7172 17.1799 21.2486 17.6485C20.7799 18.1172 20.0201 18.1172 19.5515 17.6485L12 10.0977L4.44855 17.6485C4.01597 18.0811 3.33529 18.1144 2.86455 17.7484L2.7515 17.6485C2.28287 17.1799 2.28287 16.4201 2.7515 15.9515L11.1515 7.55147C11.3678 7.33518 11.6461 7.21872 11.9292 7.20208H12.0709Z" fill="white"/>
  </mask>
  <g mask="url(#mask0_2281_1732)">
  </g>
</svg>