<svg xmlns="http://www.w3.org/2000/svg" width="20" height="20" viewBox="0 0 20 20" fill="none">
  <path fill-rule="evenodd" clip-rule="evenodd" d="M15.2711 3.29664C15.6666 2.90112 16.3078 2.90112 16.7034 3.29664C17.0989 3.69215 17.0989 4.33341 16.7034 4.72892L11.4323 10L16.7034 15.2711C17.0989 15.6666 17.0989 16.3078 16.7034 16.7034C16.3078 17.0989 15.6666 17.0989 15.2711 16.7034L10 11.4323L4.72892 16.7034C4.3334 17.0989 3.69215 17.0989 3.29664 16.7034C2.90112 16.3078 2.90112 15.6666 3.29664 15.2711L8.56772 10L3.29664 4.72892C2.90112 4.33341 2.90112 3.69215 3.29664 3.29664C3.69215 2.90112 4.3334 2.90112 4.72892 3.29664L10 8.56772L15.2711 3.29664Z" fill="#2B3247"/>
</svg>