<svg xmlns="http://www.w3.org/2000/svg" width="16" height="16" viewBox="0 0 16 16" fill="none">
  <path fill-rule="evenodd" clip-rule="evenodd" d="M3.78353 2.6373C3.46711 2.32089 2.95411 2.32089 2.6377 2.6373C2.32129 2.95371 2.32129 3.46672 2.6377 3.78313L6.85456 7.99999L2.6377 12.2169C2.32129 12.5333 2.32129 13.0463 2.6377 13.3627C2.95411 13.6791 3.46712 13.6791 3.78353 13.3627L8.00039 9.14582L12.2173 13.3627C12.5337 13.6791 13.0467 13.6791 13.3631 13.3627C13.6795 13.0463 13.6795 12.5333 13.3631 12.2169L9.14622 7.99999L13.3631 3.78313C13.6795 3.46672 13.6795 2.95371 13.3631 2.6373C13.0467 2.32089 12.5337 2.32089 12.2173 2.6373L8.00039 6.85417L3.78353 2.6373Z" fill="#6D82BB"/>
</svg>