<svg width="20" height="20" viewBox="0 0 20 20" fill="none" xmlns="http://www.w3.org/2000/svg">
<path fill-rule="evenodd" clip-rule="evenodd" d="M9.2097 3.3871L9.29289 3.29289C9.65338 2.93241 10.2206 2.90468 10.6129 3.2097L10.7071 3.29289L16.7071 9.29289C17.0676 9.65338 17.0953 10.2206 16.7903 10.6129L16.7071 10.7071L10.7071 16.7071C10.3166 17.0976 9.68342 17.0976 9.29289 16.7071C8.93241 16.3466 8.90468 15.7794 9.2097 15.3871L9.29289 15.2929L14.585 10L9.29289 4.70711C8.93241 4.34662 8.90468 3.77939 9.2097 3.3871L9.29289 3.29289L9.2097 3.3871ZM3.2097 3.3871L3.29289 3.29289C3.65338 2.93241 4.22061 2.90468 4.6129 3.2097L4.70711 3.29289L10.7071 9.29289C11.0676 9.65338 11.0953 10.2206 10.7903 10.6129L10.7071 10.7071L4.70711 16.7071C4.31658 17.0976 3.68342 17.0976 3.29289 16.7071C2.93241 16.3466 2.90468 15.7794 3.2097 15.3871L3.29289 15.2929L8.585 10L3.29289 4.70711C2.93241 4.34662 2.90468 3.77939 3.2097 3.3871L3.29289 3.29289L3.2097 3.3871Z" fill="#6D82BB"/>
<mask id="mask0_1985_1070" style="mask-type:luminance" maskUnits="userSpaceOnUse" x="3" y="3" width="14" height="14">
<path fill-rule="evenodd" clip-rule="evenodd" d="M9.2097 3.3871L9.29289 3.29289C9.65338 2.93241 10.2206 2.90468 10.6129 3.2097L10.7071 3.29289L16.7071 9.29289C17.0676 9.65338 17.0953 10.2206 16.7903 10.6129L16.7071 10.7071L10.7071 16.7071C10.3166 17.0976 9.68342 17.0976 9.29289 16.7071C8.93241 16.3466 8.90468 15.7794 9.2097 15.3871L9.29289 15.2929L14.585 10L9.29289 4.70711C8.93241 4.34662 8.90468 3.77939 9.2097 3.3871L9.29289 3.29289L9.2097 3.3871ZM3.2097 3.3871L3.29289 3.29289C3.65338 2.93241 4.22061 2.90468 4.6129 3.2097L4.70711 3.29289L10.7071 9.29289C11.0676 9.65338 11.0953 10.2206 10.7903 10.6129L10.7071 10.7071L4.70711 16.7071C4.31658 17.0976 3.68342 17.0976 3.29289 16.7071C2.93241 16.3466 2.90468 15.7794 3.2097 15.3871L3.29289 15.2929L8.585 10L3.29289 4.70711C2.93241 4.34662 2.90468 3.77939 3.2097 3.3871L3.29289 3.29289L3.2097 3.3871Z" fill="white"/>
</mask>
<g mask="url(#mask0_1985_1070)">
</g>
</svg>
