<svg width="20" height="20" viewBox="0 0 20 20" fill="none" xmlns="http://www.w3.org/2000/svg">
<path fill-rule="evenodd" clip-rule="evenodd" d="M16.7071 3.29289C17.0676 3.65338 17.0953 4.22061 16.7903 4.6129L16.7071 4.70711L11.415 10L16.7071 15.2929C17.0976 15.6834 17.0976 16.3166 16.7071 16.7071C16.3466 17.0676 15.7794 17.0953 15.3871 16.7903L15.2929 16.7071L9.29289 10.7071C8.90237 10.3166 8.90237 9.68342 9.29289 9.29289L15.2929 3.29289C15.6834 2.90237 16.3166 2.90237 16.7071 3.29289ZM9.29289 3.29289C9.68342 2.90237 10.3166 2.90237 10.7071 3.29289C11.0976 3.68342 11.0976 4.31658 10.7071 4.70711L5.415 10L10.7071 15.2929C11.0976 15.6834 11.0976 16.3166 10.7071 16.7071C10.3466 17.0676 9.77939 17.0953 9.3871 16.7903L9.29289 16.7071L3.29289 10.7071C2.90237 10.3166 2.90237 9.68342 3.29289 9.29289L9.29289 3.29289Z" fill="#6D82BB"/>
<mask id="mask0_1955_953" style="mask-type:luminance" maskUnits="userSpaceOnUse" x="3" y="3" width="14" height="14">
<path fill-rule="evenodd" clip-rule="evenodd" d="M16.7071 3.29289C17.0676 3.65338 17.0953 4.22061 16.7903 4.6129L16.7071 4.70711L11.415 10L16.7071 15.2929C17.0976 15.6834 17.0976 16.3166 16.7071 16.7071C16.3466 17.0676 15.7794 17.0953 15.3871 16.7903L15.2929 16.7071L9.29289 10.7071C8.90237 10.3166 8.90237 9.68342 9.29289 9.29289L15.2929 3.29289C15.6834 2.90237 16.3166 2.90237 16.7071 3.29289ZM9.29289 3.29289C9.68342 2.90237 10.3166 2.90237 10.7071 3.29289C11.0976 3.68342 11.0976 4.31658 10.7071 4.70711L5.415 10L10.7071 15.2929C11.0976 15.6834 11.0976 16.3166 10.7071 16.7071C10.3466 17.0676 9.77939 17.0953 9.3871 16.7903L9.29289 16.7071L3.29289 10.7071C2.90237 10.3166 2.90237 9.68342 3.29289 9.29289L9.29289 3.29289Z" fill="white"/>
</mask>
<g mask="url(#mask0_1955_953)">
</g>
</svg>
