<?xml version="1.0" encoding="utf-8"?>
<!-- Generator: Adobe Illustrator 28.3.0, SVG Export Plug-In . SVG Version: 6.00 Build 0)  -->
<svg version="1.1" id="Layer_1" xmlns="http://www.w3.org/2000/svg" xmlns:xlink="http://www.w3.org/1999/xlink" x="0px" y="0px"
	 viewBox="0 0 195 152" style="enable-background:new 0 0 195 152;" xml:space="preserve">
<style type="text/css">
	.st0{fill:#2D5DE0;}
	.st1{fill:#FFD985;stroke:#BACAF5;stroke-width:0.8;stroke-linejoin:round;}
	.st2{fill:#FFD985;}
	.st3{fill:#F0F1F5;}
	.st4{fill:#C9CDD6;}
	.st5{fill:#E1E4EB;}
	.st6{fill:#11338F;}
	.st7{opacity:0.2;fill:#09132E;enable-background:new    ;}
	.st8{fill:#FFFFFF;}
	.st9{fill:#9DB4F5;}
	.st10{opacity:0.7;fill:#09132E;enable-background:new    ;}
	.st11{opacity:0.5;fill:#09132E;enable-background:new    ;}
	.st12{opacity:0.7;fill:#FFFFFF;enable-background:new    ;}
	.st13{opacity:0.8;fill:#FFFFFF;enable-background:new    ;}
	.st14{fill:#2B3247;}
	.st15{opacity:0.6;fill:#FFFFFF;enable-background:new    ;}
	.st16{fill:none;stroke:#BACAF5;stroke-width:0.8;stroke-linejoin:round;}
	.st17{fill:#09132E;}
</style>
<path class="st0" d="M130,14.006c-0.649,0.048-1.26,0.378-1.72,0.93c-0.46,0.552-0.735,1.286-0.775,2.064h-0.01
	c-0.04-0.778-0.315-1.513-0.775-2.064c-0.46-0.551-1.071-0.882-1.72-0.93v-0.012c0.649-0.048,1.26-0.378,1.72-0.93
	c0.46-0.552,0.735-1.286,0.775-2.064h0.01c0.04,0.778,0.315,1.512,0.775,2.064c0.46,0.552,1.071,0.882,1.72,0.93V14.006z"/>
<path class="st0" d="M72,8.505c-0.649,0.04-1.26,0.315-1.72,0.775c-0.459,0.46-0.735,1.071-0.775,1.72h-0.01
	c-0.04-0.649-0.315-1.26-0.775-1.72C68.26,8.82,67.649,8.545,67,8.505v-0.01c0.649-0.04,1.26-0.315,1.72-0.775
	c0.46-0.46,0.735-1.071,0.775-1.72h0.01c0.04,0.649,0.316,1.26,0.775,1.72c0.46,0.46,1.071,0.735,1.72,0.775V8.505z"/>
<path class="st1" d="M88,7.501c-0.13,0.008-0.252,0.063-0.344,0.155C87.564,7.748,87.509,7.87,87.501,8h-0.002
	c-0.008-0.13-0.063-0.252-0.155-0.344C87.252,7.564,87.13,7.509,87,7.501V7.499c0.13-0.008,0.252-0.063,0.344-0.155
	C87.436,7.252,87.491,7.13,87.499,7h0.002c0.008,0.13,0.063,0.252,0.155,0.344C87.748,7.436,87.87,7.491,88,7.499V7.501z"/>
<path class="st2" d="M110,8.511c-1.557,0.088-3.025,0.694-4.128,1.705c-1.103,1.011-1.764,2.357-1.86,3.784h-0.024
	c-0.095-1.427-0.757-2.773-1.86-3.784C101.025,9.205,99.557,8.598,98,8.511V8.489c1.557-0.087,3.025-0.694,4.128-1.705
	c1.103-1.011,1.765-2.357,1.86-3.784h0.024c0.096,1.427,0.757,2.773,1.86,3.784c1.103,1.011,2.571,1.617,4.128,1.705V8.511z"/>
<path class="st0" d="M82,10.008c-1.168,0.064-2.269,0.505-3.096,1.24S77.581,12.962,77.509,14h-0.018
	c-0.071-1.038-0.568-2.017-1.395-2.752s-1.928-1.176-3.096-1.24V9.992c1.168-0.064,2.269-0.505,3.096-1.24S77.42,7.038,77.491,6
	h0.018c0.072,1.038,0.568,2.017,1.395,2.752c0.827,0.735,1.928,1.176,3.096,1.24V10.008z"/>
<path class="st3" d="M22.113,138.431c29.484,15.425,77.29,15.425,106.774,0c29.484-15.426,29.484-40.436,0-55.862
	c-29.484-15.426-77.29-15.426-106.774,0S-7.371,123.005,22.113,138.431z"/>
<path class="st4" d="M13.843,112.917l-9.558-5.541V86.803l9.558,5.537V112.917z"/>
<path class="st5" d="M13.842,92.339l13.657-7.913v20.576l-13.657,7.913V92.339z"/>
<path class="st3" d="M27.5,84.425l-13.657,7.913l-9.558-5.537l13.657-7.916L27.5,84.425z"/>
<path class="st4" d="M15.207,93.133l10.927-6.33l0.252,0.145v7.619l-10.927,6.33l-0.252-0.145V93.133z"/>
<path class="st3" d="M15.459,93.277l10.927-6.33v7.619l-10.927,6.331V93.277z"/>
<path class="st4" d="M19.742,92.087l1.859-1.076c0.242-0.138,0.437-0.074,0.437,0.142c0,0.216-0.195,0.509-0.437,0.648l-1.859,1.076
	c-0.242,0.138-0.437,0.078-0.437-0.142C19.305,92.516,19.5,92.225,19.742,92.087z"/>
<path class="st4" d="M14.959,102.775l10.923-6.334v7.623l0.252,0.145l-10.927,6.33l-0.252-0.145L14.959,102.775z"/>
<path class="st3" d="M15.209,102.92l10.927-6.33v7.619l-10.927,6.33V102.92z"/>
<path class="st4" d="M19.491,101.73l1.859-1.077c0.242-0.138,0.437-0.074,0.437,0.142c0,0.216-0.195,0.509-0.437,0.648l-1.859,1.076
	c-0.242,0.138-0.437,0.074-0.437-0.142C19.054,102.158,19.249,101.868,19.491,101.73z"/>
<path class="st4" d="M13.842,91.158l-9.558-5.541V65.041l9.558,5.541V91.158z"/>
<path class="st5" d="M13.842,70.581l13.657-7.913v20.573l-13.657,7.916V70.581z"/>
<path class="st3" d="M27.499,62.668L13.842,70.58L4.284,65.04l13.657-7.913L27.499,62.668z"/>
<path class="st4" d="M15.207,71.371l10.927-6.33l0.252,0.148l-0.003,7.619l-10.923,6.33l-0.252-0.145V71.371z"/>
<path class="st4" d="M19.743,70.328l1.859-1.076c0.242-0.138,0.437-0.078,0.437,0.142c0,0.219-0.195,0.509-0.437,0.648l-1.859,1.076
	c-0.242,0.138-0.437,0.078-0.437-0.142S19.501,70.466,19.743,70.328z"/>
<path class="st4" d="M14.956,81.014l10.927-6.33v7.623l0.252,0.145l-10.927,6.33l-0.252-0.145V81.014z"/>
<path class="st3" d="M15.209,81.162l10.927-6.334v7.623l-10.927,6.33V81.162z"/>
<path class="st4" d="M19.491,79.971l1.859-1.076c0.242-0.138,0.437-0.078,0.437,0.142c0,0.219-0.195,0.51-0.437,0.648l-1.859,1.076
	c-0.242,0.138-0.437,0.078-0.437-0.142S19.249,80.109,19.491,79.971z"/>
<path class="st4" d="M15.207,71.369l10.927-6.33v7.622l-10.927,6.33V71.369z"/>
<path class="st4" d="M31.597,68.805l-5.981-3.465v6.715l5.981,3.465V68.805z"/>
<path class="st5" d="M19.305,80.077v-9.495l2.343-1.363l0.387,0.57l6.828-3.955v8.706L19.305,80.077z"/>
<path class="st3" d="M19.305,80.077l0.682-8.308l9.558-5.541l-0.683,8.311L19.305,80.077z"/>
<path class="st5" d="M20.67,75.135l-5.211-3.02v6.715l5.211,3.02V75.135z"/>
<path class="st3" d="M20.67,74.539l10.927-6.334l-0.003,7.622l-10.923,6.33V74.539z"/>
<path class="st4" d="M24.954,73.348l1.859-1.076c0.242-0.138,0.437-0.078,0.437,0.142s-0.195,0.509-0.437,0.648l-1.859,1.076
	c-0.242,0.138-0.437,0.078-0.437-0.142C24.517,73.776,24.712,73.486,24.954,73.348z"/>
<path class="st4" d="M20.671,74.537l-0.363-0.213v7.619l0.363,0.213V74.537z"/>
<path class="st5" d="M20.308,74.326l10.923-6.33l0.366,0.209l-10.927,6.334L20.308,74.326z"/>
<path class="st4" d="M126.767,100.45l-9.562-5.537V74.336l9.562,5.541V100.45z"/>
<path class="st5" d="M126.767,79.876l13.656-7.913v20.573l-13.656,7.913V79.876z"/>
<path class="st3" d="M140.423,71.963l-13.656,7.913l-9.562-5.541l13.657-7.913L140.423,71.963z"/>
<path class="st4" d="M128.132,80.666l10.926-6.33l0.249,0.145v7.623l-10.923,6.33l-0.252-0.145V80.666z"/>
<path class="st3" d="M128.384,80.811l10.923-6.33v7.622l-10.923,6.33V80.811z"/>
<path class="st4" d="M132.667,79.623l1.859-1.076c0.242-0.138,0.437-0.078,0.437,0.142c0,0.219-0.195,0.509-0.437,0.648
	l-1.859,1.076c-0.243,0.138-0.438,0.078-0.438-0.142C132.229,80.051,132.424,79.761,132.667,79.623z"/>
<path class="st4" d="M127.879,90.309l10.927-6.33v7.619l0.252,0.148l-10.927,6.33l-0.252-0.145V90.309z"/>
<path class="st3" d="M128.132,90.453l10.926-6.33v7.623l-10.926,6.33V90.453z"/>
<path class="st4" d="M132.414,89.267l1.859-1.076c0.242-0.138,0.437-0.074,0.437,0.142c0,0.216-0.195,0.509-0.437,0.648
	l-1.859,1.076c-0.242,0.138-0.437,0.078-0.437-0.142S132.172,89.405,132.414,89.267z"/>
<path class="st6" d="M35.806,121.957c0,0,0.04-5.352-3.322-9.364c-2.979-3.553-4.562-5.807-3.621-6.846
	c0.941-1.04,2.952-1.289,5.672,1.582c2.72,2.872,2.932,10.839,2.555,12.64l-1.288,1.988H35.806z"/>
<path class="st7" d="M35.806,121.957c0,0,0.04-5.352-3.322-9.364c-2.979-3.553-4.562-5.807-3.621-6.846
	c0.941-1.04,2.952-1.289,5.672,1.582c2.72,2.872,2.932,10.839,2.555,12.64l-1.288,1.988H35.806z"/>
<path class="st8" d="M36.388,116.203c-0.077,0-0.148-0.054-0.165-0.135c-1.177-5.523-4.199-8.577-5.894-9.907
	c-0.074-0.057-0.087-0.161-0.03-0.236c0.057-0.074,0.161-0.087,0.235-0.03c1.731,1.356,4.818,4.474,6.015,10.103
	c0.02,0.091-0.037,0.182-0.128,0.199c-0.013,0-0.023,0.003-0.034,0.003V116.203z"/>
<path class="st6" d="M35.693,123.947l-1.365,0.793c0,0-0.35-1.232-1.842-1.583c-1.493-0.35-3.049-0.28-4.095-1.582
	c-1.046-1.303,0.229-2.716,0-3.678c-0.229-0.958-0.38-1.235-2.253-2.193c-1.876-0.959-2.616-2.548-1.204-3.628
	c1.412-1.08,3.705-0.287,5.083,0.658c1.23,0.844,2.4,1.066,3.775,1.235c1.372,0.169,3.614,0.942,3.271,4.144
	c-0.343,3.205-1.365,5.831-1.365,5.831L35.693,123.947z"/>
<path class="st8" d="M30.434,119.729c-0.071,0-0.138-0.044-0.161-0.118c-0.027-0.087,0.02-0.185,0.108-0.212
	c0.124-0.041,3.032-0.962,4.263,0.03c0.074,0.057,0.084,0.165,0.027,0.236c-0.057,0.074-0.165,0.085-0.235,0.027
	c-1.089-0.877-3.92,0.02-3.95,0.031C30.467,119.729,30.45,119.729,30.434,119.729z"/>
<path class="st8" d="M35.846,123.687c-0.084,0-0.158-0.064-0.168-0.152c-0.75-7.106-9.279-10.477-9.363-10.511
	c-0.087-0.034-0.131-0.132-0.097-0.219c0.034-0.088,0.131-0.132,0.219-0.098c0.087,0.033,8.809,3.479,9.579,10.791
	c0.01,0.091-0.057,0.175-0.148,0.185c-0.007,0-0.013,0-0.017,0L35.846,123.687z"/>
<path class="st6" d="M119.472,119.274c0.041-0.115,1.479-7.569,0-12.853c-1.358-4.846-3.1-6.634-5.601-7.029
	c-2.501-0.395-3.587,1.414-2.259,3.86c1.328,2.45,4.522,5.703,5.308,11.176c0.323,2.254,0.592,4.211,0.592,4.211l1.957,0.635
	H119.472z"/>
<path class="st7" d="M119.472,119.274c0.041-0.115,1.479-7.569,0-12.853c-1.358-4.846-3.1-6.634-5.601-7.029
	c-2.501-0.395-3.587,1.414-2.259,3.86c1.328,2.45,4.522,5.703,5.308,11.176c0.323,2.254,0.592,4.211,0.592,4.211l1.957,0.635
	H119.472z"/>
<path class="st8" d="M118.628,114.995c0,0-0.006,0-0.01,0c-0.094-0.007-0.165-0.084-0.158-0.179
	c0.343-6.033-1.627-11.419-5.147-14.061c-0.074-0.057-0.091-0.162-0.034-0.236c0.054-0.074,0.162-0.091,0.236-0.034
	c3.607,2.707,5.631,8.203,5.281,14.348c-0.003,0.091-0.08,0.159-0.168,0.159V114.995z"/>
<path class="st6" d="M123.341,123.155c-0.192-1.387,0.602-3.465,2.488-3.958c1.886-0.489,2.726-1.579,2.047-2.767
	c-0.682-1.188-0.521-2.278,1.19-2.77c1.712-0.493,3.211-1.357,2.226-3.165c-0.716-1.313-0.874-2.16,0.881-4.748
	c1.456-2.146,0.265-3.405-1.557-3.165c-1.822,0.239-2.948,2.412-4.085,2.78c-1.136,0.368-1.405-1.582-2.908-0.712
	c-1.503,0.871-1.409,3.101-1.459,4.657c-0.047,1.555-0.148,1.906-1.506,1.717c-1.358-0.189-2.686,0.034-2.66,3.331
	c0.024,2.827,1.527,6.33,1.527,6.33L123.341,123.155z"/>
<path class="st8" d="M120.956,121.047c0,0-0.013,0-0.02,0c-0.091-0.01-0.158-0.095-0.148-0.186
	c0.948-8.503,8.217-15.67,10.113-17.124c0.074-0.058,0.178-0.044,0.235,0.03c0.058,0.074,0.044,0.179-0.03,0.236
	c-1.869,1.434-9.047,8.51-9.982,16.895C121.114,120.986,121.04,121.047,120.956,121.047z"/>
<path class="st8" d="M124.272,111.963c-0.067,0-0.131-0.04-0.158-0.111c-0.033-0.088,0.014-0.186,0.098-0.216
	c2.713-1.013,5.783-0.537,5.914-0.517c0.091,0.014,0.154,0.102,0.138,0.193c-0.014,0.091-0.105,0.152-0.192,0.142
	c-0.03-0.007-3.117-0.483-5.742,0.496c-0.021,0.006-0.041,0.01-0.058,0.01V111.963z"/>
<path class="st8" d="M121.857,117.069c-0.047,0-0.094-0.02-0.124-0.057c-1.809-2.055-2.199-4.508-2.216-4.613
	c-0.013-0.091,0.051-0.179,0.142-0.192c0.094-0.014,0.178,0.05,0.191,0.142c0.004,0.023,0.394,2.459,2.135,4.44
	c0.061,0.071,0.054,0.176-0.013,0.24c-0.031,0.027-0.071,0.04-0.111,0.04H121.857z"/>
<path class="st9" d="M35.692,71.719v52.227l53.261-30.861V45.602L49.349,68.55l-1.365-3.955L35.692,71.719z"/>
<path class="st10" d="M35.692,71.719v52.227l53.261-30.861V45.602L49.349,68.55l-1.365-3.955L35.692,71.719z"/>
<path class="st4" d="M36,124l2.734-47.271L92,46l-2.734,47.274L36,124z"/>
<path class="st9" d="M35.692,123.948l4.098-46.69l53.261-30.861l-4.098,46.69L35.692,123.948z"/>
<path class="st10" d="M35.692,123.948l4.098-46.69l53.261-30.861l-4.098,46.69L35.692,123.948z"/>
<path class="st9" d="M43.89,76.467v52.227l53.261-30.861V50.35L57.546,73.302l-1.365-3.958L43.89,76.467z"/>
<path class="st11" d="M43.89,76.467v52.227l53.261-30.861V50.35L57.546,73.302l-1.365-3.958L43.89,76.467z"/>
<path class="st4" d="M44,129l2.73-47.877L100,50l-2.73,47.88L44,129z"/>
<path class="st9" d="M43.89,128.694l4.095-46.69l53.261-30.861l-4.095,46.69L43.89,128.694z"/>
<path class="st11" d="M43.89,128.694l4.095-46.69l53.261-30.861l-4.095,46.69L43.89,128.694z"/>
<path class="st4" d="M89,145c-9.78-5.379-18.855-11.222-23-18.085L78.577,120L89,145z"/>
<path class="st9" d="M53.447,82.003v52.23l53.262-30.864v-47.48L67.104,78.837l-1.365-3.955L53.447,82.003z"/>
<path class="st7" d="M53.447,82.003v52.23l53.262-30.864v-47.48L67.104,78.837l-1.365-3.955L53.447,82.003z"/>
<path class="st8" d="M68.793,97.447c-0.134,0-0.155-0.155-0.155-0.25V52.65c0-0.314,0.229-0.709,0.498-0.867l38.442-22.274
	c0.064-0.037,0.124-0.057,0.175-0.057c0.134,0,0.154,0.155,0.154,0.25v44.548c0,0.314-0.228,0.709-0.497,0.867L68.968,97.39
	C68.904,97.427,68.844,97.447,68.793,97.447z"/>
<path class="st9" d="M107.732,29.624c0,0,0.01,0.04,0.01,0.078v44.548c0,0.25-0.199,0.594-0.414,0.719L68.887,97.242
	c-0.03,0.017-0.054,0.027-0.071,0.03c-0.003-0.017-0.007-0.041-0.007-0.078V52.65c0-0.25,0.198-0.594,0.413-0.719l38.438-22.277
	C107.691,29.638,107.715,29.627,107.732,29.624z M107.752,29.283c-0.078,0-0.168,0.027-0.259,0.081L69.051,51.638
	c-0.323,0.186-0.582,0.641-0.582,1.012v44.548c0,0.263,0.131,0.418,0.323,0.418c0.077,0,0.168-0.027,0.259-0.081l38.442-22.274
	c0.323-0.186,0.581-0.641,0.581-1.012V29.702C108.074,29.435,107.943,29.283,107.752,29.283z"/>
<path class="st12" d="M107.732,29.624c0,0,0.01,0.04,0.01,0.078v44.548c0,0.25-0.199,0.594-0.414,0.719L68.887,97.242
	c-0.03,0.017-0.054,0.027-0.071,0.03c-0.003-0.017-0.007-0.041-0.007-0.078V52.65c0-0.25,0.198-0.594,0.413-0.719l38.438-22.277
	C107.691,29.638,107.715,29.627,107.732,29.624z M107.752,29.283c-0.078,0-0.168,0.027-0.259,0.081L69.051,51.638
	c-0.323,0.186-0.582,0.641-0.582,1.012v44.548c0,0.263,0.131,0.418,0.323,0.418c0.077,0,0.168-0.027,0.259-0.081l38.442-22.274
	c0.323-0.186,0.581-0.641,0.581-1.012V29.702C108.074,29.435,107.943,29.283,107.752,29.283z"/>
<path class="st9" d="M72.567,54.348l13.657-7.913v15.829l-13.657,7.913V54.348z"/>
<path class="st13" d="M72.567,54.348l13.657-7.913v15.829l-13.657,7.913V54.348z"/>
<path class="st8" d="M84.174,50.393v4.748l-0.427,0.24v-1.454c0-0.803-0.652-1.076-1.456-0.611l-5.793,3.357
	c-0.804,0.466-1.456,1.495-1.456,2.298v1.454l-0.427,0.257v-4.748L84.174,50.393z"/>
<path class="st8" d="M81.541,62.493c-0.699,0.405-1.267-0.02-1.267-0.952v-7.616l-1.755,0.958v7.673
	c0,0.931-0.568,2.018-1.268,2.423l-1.268,0.736v0.503l6.828-3.958v-0.503c0,0-0.568,0.331-1.268,0.736H81.541z"/>
<path class="st14" d="M88.955,45.647c0,0.439,0.39,0.563,0.874,0.287l13.277-7.693c0.481-0.28,0.874-0.86,0.874-1.299
	c0-0.439-0.39-0.563-0.874-0.287l-13.277,7.693C89.345,44.628,88.955,45.208,88.955,45.647z"/>
<path class="st14" d="M88.955,50.395c0,0.439,0.39,0.563,0.874,0.287l13.277-7.693c0.481-0.28,0.874-0.861,0.874-1.299
	c0-0.439-0.39-0.563-0.874-0.287l-13.277,7.693C89.345,49.376,88.955,49.957,88.955,50.395z"/>
<path class="st14" d="M88.955,55.143c0,0.439,0.39,0.564,0.874,0.287l13.277-7.694c0.481-0.28,0.874-0.86,0.874-1.299
	c0-0.439-0.39-0.563-0.874-0.287l-13.277,7.693C89.345,54.124,88.955,54.705,88.955,55.143z"/>
<path class="st14" d="M88.955,59.889c0,0.439,0.39,0.564,0.874,0.287l13.277-7.694c0.481-0.28,0.874-0.86,0.874-1.299
	c0-0.439-0.39-0.564-0.874-0.287L89.829,58.59C89.345,58.87,88.955,59.451,88.955,59.889z"/>
<path class="st14" d="M72.567,74.137c0,0.439,0.39,0.564,0.874,0.287l29.664-17.189c0.48-0.28,0.874-0.861,0.874-1.299
	c0-0.439-0.39-0.563-0.874-0.287L73.441,72.838C72.961,73.118,72.567,73.698,72.567,74.137z"/>
<path class="st14" d="M72.567,78.885c0,0.439,0.39,0.563,0.874,0.287l29.664-17.189c0.48-0.28,0.874-0.86,0.874-1.299
	c0-0.439-0.39-0.564-0.874-0.287L73.441,77.586C72.961,77.866,72.567,78.446,72.567,78.885z"/>
<path class="st14" d="M72.567,83.633c0,0.439,0.39,0.563,0.874,0.287l29.664-17.189c0.48-0.28,0.874-0.86,0.874-1.299
	c0-0.439-0.39-0.563-0.874-0.287L73.441,82.334C72.961,82.614,72.567,83.194,72.567,83.633z"/>
<path class="st9" d="M53.447,134.236l9.558-41.943l53.261-30.861l-9.558,41.939L53.447,134.236z"/>
<path class="st9" d="M66.479,95.578v31.105l12.288-7.124V88.455L66.479,95.578z"/>
<path class="st7" d="M66.479,95.578v31.105l12.288-7.124V88.455L66.479,95.578z"/>
<path class="st8" d="M88.967,145.11c-1.046-0.779-11.122-8.513-16.245-19.557c-5.453-11.756-5.45-25.469-5.446-30.629v-0.162
	l36.538-21.17c0,5.21,0.007,18.94,5.48,30.736c5.006,10.788,14.699,18.431,16.235,19.598L88.974,145.11H88.967z"/>
<path class="st9" d="M103.642,73.886c0,5.426,0.104,18.9,5.494,30.518c4.838,10.423,14.036,17.924,16.084,19.507l-36.243,21.001
	c-1.415-1.073-11.118-8.672-16.107-19.429c-5.44-11.722-5.433-25.405-5.433-30.558v-0.064l36.202-20.978 M103.978,73.303
	L67.104,94.669c0,4.856-0.101,18.963,5.463,30.959c5.463,11.773,16.387,19.689,16.387,19.689l36.875-21.366
	c0,0-10.926-7.913-16.39-19.689c-5.564-11.996-5.463-26.104-5.463-30.959H103.978z"/>
<path class="st12" d="M103.642,73.886c0,5.426,0.104,18.9,5.494,30.518c4.838,10.423,14.036,17.924,16.084,19.507l-36.243,21.001
	c-1.415-1.073-11.118-8.672-16.107-19.429c-5.44-11.722-5.433-25.405-5.433-30.558v-0.064l36.202-20.978 M103.978,73.303
	L67.104,94.669c0,4.856-0.101,18.963,5.463,30.959c5.463,11.773,16.387,19.689,16.387,19.689l36.875-21.366
	c0,0-10.926-7.913-16.39-19.689c-5.564-11.996-5.463-26.104-5.463-30.959H103.978z"/>
<path class="st14" d="M99.806,80.466l-11.663,6.759c-0.484,0.28-0.864,0.854-0.847,1.279c0.017,0.429,0.424,0.547,0.908,0.267
	l11.663-6.759c0.481-0.28,0.857-0.854,0.841-1.279C100.69,80.304,100.29,80.186,99.806,80.466z"/>
<path class="st14" d="M100.056,85.067l-11.663,6.759c-0.484,0.28-0.847,0.844-0.814,1.262c0.037,0.415,0.461,0.526,0.941,0.246
	l11.663-6.759c0.48-0.28,0.84-0.843,0.803-1.259c-0.037-0.415-0.454-0.526-0.935-0.246L100.056,85.067z"/>
<path class="st14" d="M100.521,89.545l-11.663,6.759c-0.484,0.28-0.83,0.833-0.773,1.238c0.057,0.405,0.498,0.506,0.982,0.226
	l11.663-6.759c0.481-0.28,0.824-0.833,0.766-1.238C101.439,89.366,101.006,89.265,100.521,89.545z"/>
<path class="st14" d="M101.221,93.891l-11.662,6.759c-0.484,0.28-0.814,0.823-0.733,1.215c0.081,0.391,0.538,0.479,1.022,0.202
	l11.663-6.759c0.48-0.28,0.806-0.823,0.726-1.215c-0.081-0.391-0.531-0.482-1.012-0.202H101.221z"/>
<path class="st14" d="M102.17,98.089l-11.663,6.759c-0.481,0.28-0.793,0.813-0.689,1.191c0.104,0.378,0.582,0.455,1.066,0.175
	l11.663-6.759c0.484-0.28,0.786-0.81,0.682-1.188c-0.104-0.378-0.575-0.459-1.056-0.179H102.17z"/>
<path class="st14" d="M103.383,102.136l-28.422,16.47c-0.481,0.28-0.773,0.8-0.642,1.165c0.131,0.361,0.632,0.425,1.113,0.148
	l28.423-16.47c0.481-0.28,0.763-0.8,0.632-1.161s-0.622-0.428-1.106-0.148L103.383,102.136z"/>
<path class="st14" d="M104.896,105.996l-28.423,16.47c-0.481,0.28-0.746,0.786-0.588,1.13c0.158,0.344,0.683,0.395,1.163,0.118
	l28.422-16.47c0.485-0.28,0.743-0.782,0.582-1.13c-0.158-0.344-0.676-0.398-1.16-0.118H104.896z"/>
<path class="st14" d="M106.751,109.681l-28.423,16.47c-0.481,0.28-0.723,0.772-0.531,1.1c0.192,0.327,0.743,0.361,1.224,0.081
	l28.423-16.47c0.484-0.28,0.712-0.77,0.521-1.094c-0.192-0.327-0.733-0.367-1.217-0.087H106.751z"/>
<path class="st14" d="M108.937,113.161l-28.422,16.47c-0.481,0.28-0.699,0.759-0.477,1.069c0.222,0.311,0.793,0.331,1.274,0.051
	l28.423-16.47c0.481-0.28,0.693-0.756,0.471-1.063C109.983,112.908,109.418,112.881,108.937,113.161z"/>
<path class="st14" d="M111.419,116.47l-28.423,16.47c-0.481,0.28-0.679,0.749-0.434,1.042c0.245,0.294,0.837,0.304,1.321,0.024
	l28.422-16.47c0.481-0.28,0.673-0.742,0.427-1.036C112.488,116.207,111.9,116.19,111.419,116.47z"/>
<path class="st14" d="M114.165,119.625l-28.422,16.47c-0.484,0.28-0.659,0.735-0.39,1.019c0.269,0.28,0.881,0.28,1.362,0
	l28.423-16.47c0.481-0.28,0.652-0.733,0.383-1.013c-0.269-0.28-0.874-0.286-1.358-0.006H114.165z"/>
<path class="st14" d="M117.172,122.634l-28.423,16.47c-0.481,0.28-0.639,0.726-0.346,0.996c0.293,0.266,0.921,0.256,1.405-0.024
	l28.423-16.47c0.481-0.28,0.635-0.719,0.343-0.989c-0.293-0.266-0.918-0.26-1.399,0.017H117.172z"/>
<path class="st9" d="M83.921,89.674l-13.408,7.771c0.148,4.872,0.703,11.908,2.737,18.99l13.408-7.771
	C84.627,101.582,84.072,94.55,83.921,89.674z"/>
<path class="st13" d="M83.921,89.674l-13.408,7.771c0.148,4.872,0.703,11.908,2.737,18.99l13.408-7.771
	C84.627,101.582,84.072,94.55,83.921,89.674z"/>
<path class="st9" d="M75.979,96.365c0-0.756-0.245-1.336-0.656-1.711l-4.814,2.791c0.04,1.289,0.108,2.73,0.225,4.278
	c0.528,0.088,1.15-0.01,1.822-0.32C74.446,100.519,75.979,98.261,75.979,96.365z"/>
<path class="st15" d="M75.979,96.365c0-0.756-0.245-1.336-0.656-1.711l-4.814,2.791c0.04,1.289,0.108,2.73,0.225,4.278
	c0.528,0.088,1.15-0.01,1.822-0.32C74.446,100.519,75.979,98.261,75.979,96.365z"/>
<path class="st9" d="M85.518,104.007c-0.894-1.134-2.713-4.623-3.49-6.145c-0.138-0.27-0.531-0.233-0.622,0.057
	c-1.341,4.326-1.456,8.857-1.456,8.857c-1.079-0.857-1.852-1.707-2.848-3.178c-0.145-0.213-0.471-0.155-0.535,0.094
	c-1.466,5.666-0.73,11.24-0.73,11.24l10.816-6.266c-0.447-1.562-0.82-3.121-1.136-4.656V104.007z"/>
<path class="st15" d="M85.518,104.007c-0.894-1.134-2.713-4.623-3.49-6.145c-0.138-0.27-0.531-0.233-0.622,0.057
	c-1.341,4.326-1.456,8.857-1.456,8.857c-1.079-0.857-1.852-1.707-2.848-3.178c-0.145-0.213-0.471-0.155-0.535,0.094
	c-1.466,5.666-0.73,11.24-0.73,11.24l10.816-6.266c-0.447-1.562-0.82-3.121-1.136-4.656V104.007z"/>
<path class="st16" d="M3,81.002c-0.13,0.016-0.252,0.126-0.344,0.31C2.564,81.496,2.509,81.741,2.501,82H2.499
	c-0.008-0.259-0.063-0.504-0.155-0.688C2.252,81.128,2.13,81.018,2,81.002v-0.004c0.13-0.016,0.252-0.126,0.344-0.31
	C2.436,80.504,2.491,80.259,2.499,80h0.002c0.008,0.259,0.063,0.504,0.155,0.688C2.748,80.872,2.87,80.982,3,80.998V81.002z"/>
<path class="st16" d="M24,133.002c-0.26,0.016-0.504,0.126-0.688,0.31c-0.184,0.184-0.294,0.429-0.31,0.688h-0.004
	c-0.016-0.259-0.126-0.504-0.31-0.688c-0.184-0.184-0.428-0.294-0.688-0.31v-0.004c0.26-0.016,0.504-0.126,0.688-0.31
	c0.184-0.184,0.294-0.429,0.31-0.688h0.004c0.016,0.259,0.126,0.504,0.31,0.688c0.184,0.184,0.428,0.294,0.688,0.31V133.002z"/>
<path class="st16" d="M137,102.501c-0.259,0.008-0.504,0.063-0.688,0.155c-0.184,0.092-0.294,0.214-0.31,0.344h-0.004
	c-0.016-0.13-0.126-0.252-0.31-0.344c-0.184-0.092-0.429-0.147-0.688-0.155v-0.002c0.259-0.008,0.504-0.063,0.688-0.155
	c0.184-0.092,0.294-0.214,0.31-0.344h0.004c0.016,0.13,0.126,0.252,0.31,0.344c0.184,0.092,0.429,0.147,0.688,0.155V102.501z"/>
<path class="st16" d="M120,137.501c-0.259,0.008-0.504,0.063-0.688,0.155c-0.184,0.092-0.294,0.214-0.31,0.344h-0.004
	c-0.016-0.13-0.126-0.252-0.31-0.344c-0.184-0.092-0.429-0.147-0.688-0.155v-0.002c0.259-0.008,0.504-0.063,0.688-0.155
	c0.184-0.092,0.294-0.214,0.31-0.344h0.004c0.016,0.13,0.126,0.252,0.31,0.344c0.184,0.092,0.429,0.147,0.688,0.155V137.501z"/>
<path class="st0" d="M39,36.014c-1.946,0.111-3.781,0.883-5.16,2.17c-1.379,1.287-2.206,3-2.325,4.816h-0.03
	c-0.119-1.816-0.946-3.529-2.325-4.816s-3.214-2.058-5.16-2.17v-0.028c1.946-0.111,3.781-0.883,5.16-2.17s2.206-3,2.325-4.816h0.03
	c0.119,1.816,0.946,3.529,2.325,4.816c1.379,1.287,3.214,2.058,5.16,2.17V36.014z"/>
<path class="st0" d="M39,142.515c-1.946,0.119-3.781,0.946-5.16,2.325c-1.379,1.379-2.206,3.214-2.325,5.16h-0.03
	c-0.119-1.946-0.946-3.781-2.325-5.16s-3.214-2.206-5.16-2.325v-0.03c1.946-0.119,3.781-0.946,5.16-2.325s2.206-3.214,2.325-5.16
	h0.03c0.119,1.946,0.946,3.781,2.325,5.16c1.379,1.379,3.214,2.206,5.16,2.325V142.515z"/>
<path class="st2" d="M48,32.505c-0.778,0.04-1.513,0.315-2.064,0.775c-0.552,0.46-0.882,1.071-0.93,1.72h-0.012
	c-0.048-0.649-0.378-1.261-0.93-1.72c-0.551-0.459-1.286-0.735-2.064-0.775v-0.01c0.778-0.04,1.513-0.315,2.064-0.775
	c0.552-0.46,0.882-1.071,0.93-1.72h0.012c0.048,0.649,0.378,1.26,0.93,1.72c0.551,0.46,1.286,0.735,2.064,0.775V32.505z"/>
<path class="st0" d="M32,58.006c-0.778,0.048-1.513,0.378-2.064,0.93c-0.552,0.551-0.882,1.286-0.93,2.064h-0.012
	c-0.048-0.778-0.378-1.513-0.93-2.064c-0.552-0.552-1.286-0.882-2.064-0.93v-0.012c0.778-0.048,1.513-0.378,2.064-0.93
	c0.552-0.551,0.882-1.286,0.93-2.064h0.012c0.048,0.778,0.378,1.513,0.93,2.064c0.551,0.552,1.286,0.882,2.064,0.93V58.006z"/>
<path class="st0" d="M19,79.006c-0.649,0.048-1.26,0.379-1.72,0.93c-0.46,0.552-0.735,1.286-0.775,2.064h-0.01
	c-0.04-0.779-0.315-1.513-0.775-2.064c-0.46-0.551-1.071-0.882-1.72-0.93v-0.012c0.649-0.048,1.26-0.378,1.72-0.93
	c0.459-0.551,0.735-1.286,0.775-2.064h0.01c0.04,0.778,0.316,1.512,0.775,2.064c0.46,0.551,1.071,0.882,1.72,0.93V79.006z"/>
<path class="st16" d="M38,30.501c-0.13,0.008-0.252,0.063-0.344,0.155S37.509,30.87,37.501,31h-0.002
	c-0.008-0.13-0.063-0.252-0.155-0.344S37.13,30.509,37,30.501v-0.002c0.13-0.008,0.252-0.063,0.344-0.155S37.491,30.13,37.499,30
	h0.002c0.008,0.13,0.063,0.252,0.155,0.344S37.87,30.491,38,30.499V30.501z"/>
<path class="st16" d="M31,49.002c-0.26,0.016-0.504,0.126-0.688,0.31s-0.294,0.429-0.31,0.688h-0.004
	c-0.016-0.259-0.126-0.504-0.31-0.688c-0.184-0.184-0.428-0.294-0.688-0.31v-0.004c0.26-0.016,0.504-0.126,0.688-0.31
	c0.184-0.184,0.294-0.429,0.31-0.688h0.004c0.016,0.259,0.126,0.504,0.31,0.688s0.428,0.294,0.688,0.31V49.002z"/>
<path class="st16" d="M8,116.501c-0.13,0.008-0.252,0.063-0.344,0.155c-0.092,0.092-0.147,0.214-0.155,0.344H7.499
	c-0.008-0.13-0.063-0.252-0.155-0.344c-0.092-0.092-0.214-0.147-0.344-0.155v-0.002c0.13-0.008,0.252-0.063,0.344-0.155
	c0.092-0.092,0.147-0.214,0.155-0.344h0.002c0.008,0.13,0.063,0.252,0.155,0.344c0.092,0.092,0.214,0.147,0.344,0.155V116.501z"/>
<path class="st1" d="M24,139.501c-0.26,0.008-0.504,0.063-0.688,0.155c-0.184,0.092-0.294,0.214-0.31,0.344h-0.004
	c-0.016-0.13-0.126-0.252-0.31-0.344c-0.184-0.092-0.428-0.147-0.688-0.155v-0.002c0.26-0.008,0.504-0.063,0.688-0.155
	c0.184-0.092,0.294-0.214,0.31-0.344h0.004c0.016,0.13,0.126,0.252,0.31,0.344c0.184,0.092,0.428,0.147,0.688,0.155V139.501z"/>
<path class="st2" d="M22,123.01c-1.297,0.08-2.521,0.631-3.44,1.55s-1.47,2.143-1.55,3.44h-0.02c-0.08-1.297-0.631-2.521-1.55-3.44
	c-0.919-0.919-2.143-1.471-3.44-1.55v-0.02c1.297-0.079,2.521-0.631,3.44-1.55c0.919-0.919,1.47-2.143,1.55-3.44h0.02
	c0.08,1.297,0.631,2.521,1.55,3.44s2.143,1.47,3.44,1.55V123.01z"/>
<path class="st0" d="M20,135.006c-0.778,0.048-1.513,0.379-2.064,0.93c-0.552,0.551-0.882,1.286-0.93,2.064h-0.012
	c-0.048-0.778-0.378-1.513-0.93-2.064c-0.552-0.552-1.286-0.882-2.064-0.93v-0.012c0.778-0.048,1.513-0.378,2.064-0.93
	c0.552-0.551,0.882-1.286,0.93-2.064h0.012c0.048,0.778,0.378,1.513,0.93,2.064c0.551,0.551,1.286,0.882,2.064,0.93V135.006z"/>
<path class="st2" d="M27,50.01c-1.297,0.08-2.521,0.631-3.44,1.55c-0.919,0.919-1.47,2.143-1.55,3.44h-0.02
	c-0.08-1.297-0.631-2.521-1.55-3.44c-0.919-0.919-2.143-1.47-3.44-1.55v-0.02c1.297-0.08,2.521-0.631,3.44-1.55
	c0.919-0.919,1.47-2.143,1.55-3.44h0.02c0.08,1.297,0.631,2.521,1.55,3.44c0.919,0.919,2.143,1.47,3.44,1.55V50.01z"/>
<path class="st0" d="M99,18.006c-0.649,0.048-1.26,0.378-1.72,0.93c-0.459,0.551-0.735,1.286-0.775,2.064h-0.01
	c-0.04-0.778-0.315-1.513-0.775-2.064c-0.46-0.552-1.071-0.882-1.72-0.93v-0.012c0.649-0.048,1.26-0.378,1.72-0.93
	c0.46-0.552,0.735-1.286,0.775-2.064h0.01c0.04,0.778,0.316,1.513,0.775,2.064c0.46,0.552,1.071,0.882,1.72,0.93V18.006z"/>
<path class="st2" d="M70,23.006c-0.778,0.048-1.512,0.378-2.064,0.93c-0.551,0.551-0.882,1.286-0.93,2.064h-0.012
	c-0.048-0.778-0.378-1.513-0.93-2.064s-1.286-0.882-2.064-0.93v-0.012c0.779-0.048,1.513-0.378,2.064-0.93s0.882-1.286,0.93-2.064
	h0.012c0.048,0.778,0.379,1.513,0.93,2.064c0.552,0.552,1.286,0.882,2.064,0.93V23.006z"/>
<path class="st6" d="M131.9,32.772l4.124,8.559l4.342-2.026l-4.125-8.559c-0.553-1.148-1.973-1.625-3.172-1.065
	C131.878,30.236,131.341,31.612,131.9,32.772z"/>
<path class="st6" d="M140.979,40.115l-4.341,2.026l9.586,20.533c0.558,1.158,1.98,1.622,3.172,1.065
	c1.201-0.561,1.724-1.94,1.169-3.091L140.979,40.115z"/>
<path class="st0" d="M143,27.006c-0.778,0.048-1.513,0.378-2.064,0.93c-0.551,0.551-0.882,1.286-0.93,2.064h-0.012
	c-0.048-0.778-0.378-1.513-0.93-2.064c-0.551-0.552-1.286-0.882-2.064-0.93v-0.012c0.778-0.048,1.513-0.378,2.064-0.93
	c0.552-0.552,0.882-1.286,0.93-2.064h0.012c0.048,0.778,0.379,1.513,0.93,2.064c0.551,0.552,1.286,0.882,2.064,0.93V27.006z"/>
<path class="st0" d="M133,26.012c-1.427,0.096-2.773,0.757-3.784,1.86c-1.011,1.103-1.617,2.571-1.705,4.128h-0.022
	c-0.087-1.557-0.694-3.025-1.705-4.128c-1.011-1.103-2.357-1.764-3.784-1.86v-0.024c1.427-0.095,2.773-0.757,3.784-1.86
	c1.011-1.103,1.618-2.571,1.705-4.128h0.022c0.088,1.557,0.694,3.025,1.705,4.128c1.011,1.103,2.357,1.764,3.784,1.86V26.012z"/>
<path class="st16" d="M128,35.002c-0.259,0.016-0.504,0.126-0.688,0.31c-0.184,0.184-0.294,0.429-0.31,0.688h-0.004
	c-0.016-0.259-0.126-0.504-0.31-0.688c-0.184-0.184-0.429-0.294-0.688-0.31v-0.004c0.259-0.016,0.504-0.126,0.688-0.31
	c0.184-0.184,0.294-0.429,0.31-0.688h0.004c0.016,0.259,0.126,0.504,0.31,0.688c0.184,0.184,0.429,0.294,0.688,0.31V35.002z"/>
<path class="st17" d="M147.216,63.399c0,0-2.132,1.089-3.126,1.728c-0.059,0.06-5.95,4.512-6.088,5.974
	c-0.018,0.481,0.106,0.957,0.36,1.385c0.253,0.428,0.629,0.794,1.091,1.064c0.838,0.496,2.305,0.892,4.525-0.027
	c1.035-0.451,2.026-0.975,2.961-1.567c-0.295,0.826-0.378,1.698-0.246,2.555c0.279,1.166,0.914,2.246,1.841,3.129
	c-0.187,1.411,0.619,3.037,2.396,4.843c0.001,0.258,0.021,0.516,0.059,0.772c0.33,2.137,1.536,3.106,4.962,4.025
	c0.451,0.12,0.92,0.18,1.392,0.179c2.748,0,5.059-2.031,5.95-2.923l2.342,0.818c1.283,0.448,3.244,1.9,5.154,3.314l0.086,0.064
	c1.578,1.229,3.24,2.375,4.978,3.432c3.265,1.861,5.885,1.241,6.872,0.887l10.874,1.944c0.073,0.006,0.146,0.006,0.219,0
	c0.283,0.025,0.566-0.048,0.787-0.203c0.22-0.155,0.36-0.379,0.389-0.622c0.029-0.244-0.055-0.487-0.235-0.677
	c-0.179-0.19-0.439-0.311-0.722-0.336l-11.243-1.953c-0.263-0.047-0.538-0.006-0.768,0.115c-0.075,0.037-2.097,0.988-5.01-0.671
	c-1.66-1.007-3.249-2.099-4.759-3.267c-2.161-1.594-4.232-3.106-5.832-3.676l-2.599-0.919c-0.12-0.043-0.249-0.066-0.379-0.069
	h-0.576h-0.032c-2.049-0.069-4.327-0.248-4.861-0.46c-0.202-0.153-0.464-0.234-0.732-0.228c-0.269,0.006-0.525,0.1-0.717,0.262
	c-0.193,0.162-0.307,0.381-0.32,0.612s0.076,0.458,0.249,0.636l0.004,0.005c0.221,0.222,0.68,0.686,3.949,0.914
	c-1.045,0.763-2.475,1.489-3.847,1.126c-3.216-0.854-3.318-1.511-3.473-2.508v0c-0.176-1.153,0.123-3.653,2.257-4.053
	c2.7-0.528,9.3-0.919,9.364-0.919c0.283-0.016,0.547-0.129,0.733-0.313c0.187-0.184,0.281-0.424,0.262-0.668
	c-0.019-0.244-0.15-0.471-0.363-0.632c-0.214-0.161-0.493-0.242-0.776-0.225c-0.278,0-6.824,0.381-9.679,0.919
	c-0.814,0.165-1.563,0.511-2.175,1.003c-0.611,0.492-1.062,1.112-1.309,1.8c-0.811-1.144-0.865-1.907-0.715-2.366
	c0.751-1.248,1.77-2.361,3.004-3.281c0.795-0.579,6.157-1.071,10.671-1.172c0.283,0,0.555-0.097,0.755-0.269
	c0.2-0.172,0.312-0.406,0.312-0.65s-0.112-0.478-0.312-0.65c-0.2-0.172-0.472-0.269-0.755-0.269h-0.027
	c-2.39,0.05-10.239,0.322-11.994,1.608c-1.071,0.811-2.016,1.738-2.812,2.757c-0.35-0.437-0.594-0.931-0.715-1.452
	c-0.325-1.893,1.27-3.791,1.729-4.292c0.922-0.408,1.918-0.68,2.945-0.804c4.114-0.506,11.792-1.424,11.792-1.424l-0.294-1.838
	c0,0-7.688,0.919-11.802,1.424c-2.889,0.352-4.932,1.601-6.908,2.809l-0.028,0.017c-1.009,0.653-2.08,1.231-3.202,1.728
	c-0.709,0.299-1.702,0.565-2.38,0.175c-0.278-0.169-0.47-0.424-0.533-0.712c0.475-0.818,4.039-3.832,5.336-4.784
	c0.8-0.583,5.111-2.803,7.277-3.304c2.167-0.501,16.658-0.432,18.142-0.331c0.192,0.014,1.312,0.234,4.305,3.267
	c1.286,1.305,12.091,9.962,12.55,10.33c0.131,0.104,0.291,0.179,0.464,0.216l5.336,1.167c0.274,0.061,0.566,0.026,0.81-0.099
	s0.421-0.327,0.492-0.563c0.07-0.236,0.029-0.487-0.115-0.698c-0.144-0.21-0.379-0.363-0.654-0.424l-5.063-1.107
	c-3.239-2.601-11.205-9.02-12.171-10.013c-3.329-3.377-4.882-3.851-5.757-3.91c-1.435-0.083-16.258-0.216-18.888,0.377
	c-1.068,0.28-3.09,1.094-3.09,1.094L147.216,63.399z"/>
<path class="st16" d="M122,19.002c-0.13,0.016-0.252,0.126-0.344,0.31c-0.092,0.184-0.147,0.428-0.155,0.688h-0.002
	c-0.008-0.26-0.063-0.504-0.155-0.688c-0.092-0.184-0.214-0.294-0.344-0.31v-0.004c0.13-0.016,0.252-0.126,0.344-0.31
	c0.092-0.184,0.147-0.428,0.155-0.688h0.002c0.008,0.26,0.063,0.504,0.155,0.688c0.092,0.184,0.214,0.294,0.344,0.31V19.002z"/>
<path class="st0" d="M116,19.008c-1.038,0.064-2.017,0.505-2.752,1.24s-1.176,1.714-1.24,2.752h-0.016
	c-0.064-1.038-0.505-2.017-1.24-2.752s-1.714-1.176-2.752-1.24v-0.016c1.038-0.064,2.017-0.505,2.752-1.24s1.176-1.714,1.24-2.752
	h0.016c0.064,1.038,0.505,2.017,1.24,2.752s1.714,1.176,2.752,1.24V19.008z"/>
<path class="st0" d="M58,23.01c-1.297,0.08-2.521,0.631-3.44,1.55c-0.919,0.919-1.47,2.143-1.55,3.44h-0.02
	c-0.08-1.297-0.631-2.521-1.55-3.44c-0.919-0.919-2.143-1.47-3.44-1.55v-0.02c1.297-0.08,2.521-0.631,3.44-1.55
	c0.919-0.919,1.47-2.143,1.55-3.44h0.02c0.08,1.297,0.631,2.521,1.55,3.44c0.919,0.919,2.143,1.47,3.44,1.55V23.01z"/>
<path class="st16" d="M87,18.002c-0.13,0.016-0.252,0.126-0.344,0.31c-0.092,0.184-0.147,0.428-0.155,0.688h-0.002
	c-0.008-0.26-0.063-0.504-0.155-0.688c-0.092-0.184-0.214-0.294-0.344-0.31v-0.004c0.13-0.016,0.252-0.126,0.344-0.31
	c0.092-0.184,0.147-0.428,0.155-0.688h0.002c0.008,0.26,0.063,0.504,0.155,0.688c0.092,0.184,0.214,0.294,0.344,0.31V18.002z"/>
<path class="st16" d="M64,27.501c-0.13,0.008-0.252,0.063-0.344,0.155S63.509,27.87,63.501,28h-0.002
	c-0.008-0.13-0.063-0.252-0.155-0.344S63.13,27.509,63,27.501v-0.002c0.13-0.008,0.252-0.063,0.344-0.155S63.491,27.13,63.499,27
	h0.002c0.008,0.13,0.063,0.252,0.155,0.344S63.87,27.491,64,27.499V27.501z"/>
</svg>
