<svg width="24" height="24" viewBox="0 0 24 24" fill="none" xmlns="http://www.w3.org/2000/svg">
<path fill-rule="evenodd" clip-rule="evenodd" d="M3.40002 2.39999C2.84774 2.39999 2.40002 2.84771 2.40002 3.39999V7.39999C2.40002 7.95228 2.84774 8.39999 3.40002 8.39999H9.80002C10.3523 8.39999 10.8 7.95228 10.8 7.39999V3.39999C10.8 2.84771 10.3523 2.39999 9.80002 2.39999H3.40002ZM14.2 15.6C13.6477 15.6 13.2 16.0477 13.2 16.6V20.6C13.2 21.1523 13.6477 21.6 14.2 21.6H20.6C21.1523 21.6 21.6 21.1523 21.6 20.6V16.6C21.6 16.0477 21.1523 15.6 20.6 15.6H14.2ZM13.2 3.4C13.2 2.84771 13.6477 2.39999 14.2 2.39999H20.6C21.1523 2.39999 21.6 2.84771 21.6 3.39999V12.2C21.6 12.7523 21.1523 13.2 20.6 13.2H14.2C13.6477 13.2 13.2 12.7523 13.2 12.2V3.4ZM3.40002 10.8C2.84774 10.8 2.40002 11.2477 2.40002 11.8V20.6C2.40002 21.1523 2.84774 21.6 3.40002 21.6H9.80002C10.3523 21.6 10.8 21.1523 10.8 20.6V11.8C10.8 11.2477 10.3523 10.8 9.80002 10.8H3.40002Z" fill="#6D82BB"/>
</svg>
