<svg width="1020" height="756" viewBox="0 0 1020 756" fill="none" xmlns="http://www.w3.org/2000/svg">
<path d="M196 437.042C190.551 437.376 185.412 439.692 181.552 443.552C177.692 447.412 175.376 452.551 175.042 458H174.958C174.624 452.551 172.309 447.412 168.449 443.551C164.588 439.691 159.449 437.376 154 437.042V436.958C159.449 436.624 164.588 434.309 168.449 430.449C172.309 426.588 174.624 421.449 174.958 416H175.042C175.376 421.449 177.692 426.588 181.552 430.448C185.412 434.308 190.551 436.624 196 436.958V437.042Z" fill="#EBF0FF"/>
<path d="M871 735.042C865.551 735.376 860.412 737.692 856.552 741.552C852.692 745.412 850.376 750.551 850.042 756H849.958C849.624 750.551 847.309 745.412 843.449 741.551C839.588 737.691 834.449 735.376 829 735.042V734.958C834.449 734.624 839.588 732.309 843.449 728.449C847.309 724.588 849.624 719.449 849.958 714H850.042C850.376 719.449 852.692 724.588 856.552 728.448C860.412 732.308 865.551 734.624 871 734.958V735.042Z" fill="#EBF0FF"/>
<path d="M230 735.034C225.589 735.305 221.429 737.179 218.304 740.304C215.179 743.429 213.305 747.589 213.034 752H212.966C212.696 747.589 210.822 743.429 207.696 740.304C204.571 737.178 200.411 735.304 196 735.034V734.966C200.411 734.696 204.571 732.822 207.696 729.696C210.822 726.571 212.696 722.411 212.966 718H213.034C213.305 722.411 215.179 726.571 218.304 729.696C221.429 732.821 225.589 734.695 230 734.966V735.034Z" fill="#EBF0FF"/>
<path d="M727 590.579C716.751 591.208 707.085 595.563 699.824 602.824C692.563 610.085 688.208 619.751 687.579 630H687.421C686.793 619.75 682.438 610.084 675.177 602.823C667.916 595.562 658.25 591.207 648 590.579V590.421C658.25 589.793 667.916 585.438 675.177 578.177C682.438 570.916 686.793 561.25 687.421 551H687.579C688.208 561.249 692.563 570.915 699.824 578.176C707.085 585.437 716.751 589.792 727 590.421V590.579Z" fill="#FFF3DA"/>
<path d="M401 286.056C393.735 286.502 386.883 289.589 381.736 294.736C376.589 299.883 373.502 306.735 373.056 314H372.944C372.499 306.734 369.412 299.882 364.265 294.735C359.118 289.588 352.266 286.501 345 286.056V285.944C352.266 285.499 359.118 282.412 364.265 277.265C369.412 272.118 372.499 265.266 372.944 258H373.056C373.502 265.265 376.589 272.117 381.736 277.264C386.883 282.411 393.735 285.498 401 285.944V286.056Z" fill="#FFF3DA"/>
<path d="M125 289.555C117.864 289.993 111.135 293.025 106.08 298.08C101.025 303.135 97.9929 309.864 97.555 317H97.445C97.0078 309.864 93.976 303.135 88.9207 298.079C83.8654 293.024 77.1358 289.992 70 289.555V289.445C77.1358 289.008 83.8654 285.976 88.9207 280.921C93.976 275.865 97.0078 269.136 97.445 262H97.555C97.9929 269.136 101.025 275.865 106.08 280.92C111.135 285.975 117.864 289.007 125 289.445V289.555Z" fill="#FFF3DA"/>
<path d="M818 39.579C807.751 40.208 798.085 44.5632 790.824 51.8242C783.563 59.0852 779.208 68.7507 778.579 79H778.421C777.793 68.7503 773.438 59.0842 766.177 51.823C758.916 44.5618 749.25 40.2069 739 39.579V39.421C749.25 38.7931 758.916 34.4382 766.177 27.177C773.438 19.9158 777.793 10.2497 778.421 0L778.579 0C779.208 10.2493 783.563 19.9148 790.824 27.1758C798.085 34.4368 807.751 38.792 818 39.421V39.579Z" fill="#EBF0FF"/>
<path d="M297 98.535C292.459 98.8137 288.177 100.743 284.96 103.96C281.743 107.177 279.814 111.459 279.535 116H279.465C279.187 111.459 277.257 107.177 274.04 103.96C270.823 100.743 266.541 98.8132 262 98.535V98.465C266.541 98.1868 270.823 96.2574 274.04 93.0404C277.257 89.8235 279.187 85.541 279.465 81H279.535C279.814 85.5408 281.743 89.823 284.96 93.0399C288.177 96.2568 292.459 98.1863 297 98.465V98.535Z" fill="#EBF0FF"/>
<path d="M850 223.535C845.459 223.814 841.177 225.743 837.96 228.96C834.743 232.177 832.814 236.459 832.535 241H832.465C832.187 236.459 830.257 232.177 827.04 228.96C823.823 225.743 819.541 223.813 815 223.535V223.465C819.541 223.187 823.823 221.257 827.04 218.04C830.257 214.823 832.187 210.541 832.465 206H832.535C832.814 210.541 834.743 214.823 837.96 218.04C841.177 221.257 845.459 223.186 850 223.465V223.535Z" fill="#EBF0FF"/>
<path d="M939 371.561C931.086 372.047 923.623 375.41 918.016 381.016C912.41 386.623 909.047 394.086 908.561 402H908.439C907.954 394.086 904.592 386.622 898.985 381.015C893.378 375.408 885.914 372.046 878 371.561V371.439C885.914 370.954 893.378 367.592 898.985 361.985C904.592 356.378 907.954 348.914 908.439 341H908.561C909.047 348.914 912.41 356.377 918.016 361.984C923.623 367.59 931.086 370.953 939 371.439V371.561Z" fill="#EBF0FF"/>
<path d="M1020 659.529C1016.24 659.76 1012.69 661.359 1010.02 664.024C1007.36 666.689 1005.76 670.238 1005.53 674H1005.47C1005.24 670.237 1003.64 666.689 1000.98 664.024C998.311 661.358 994.763 659.76 991 659.529V659.471C994.763 659.24 998.311 657.642 1000.98 654.976C1003.64 652.311 1005.24 648.763 1005.47 645H1005.53C1005.76 648.762 1007.36 652.311 1010.02 654.976C1012.69 657.641 1016.24 659.24 1020 659.471V659.529Z" fill="#EBF0FF"/>
<path d="M386 628.034C381.589 628.305 377.429 630.179 374.304 633.304C371.179 636.429 369.305 640.589 369.034 645H368.966C368.696 640.589 366.822 636.429 363.696 633.304C360.571 630.178 356.411 628.304 352 628.034V627.966C356.411 627.696 360.571 625.822 363.696 622.696C366.822 619.571 368.696 615.411 368.966 611H369.034C369.305 615.411 371.179 619.571 374.304 622.696C377.429 625.821 381.589 627.695 386 627.966V628.034Z" fill="#EBF0FF"/>
<path d="M605 122.519C602.535 122.67 600.21 123.718 598.464 125.464C596.718 127.21 595.67 129.535 595.519 132H595.481C595.33 129.535 594.283 127.21 592.536 125.464C590.79 123.717 588.465 122.67 586 122.519V122.481C588.465 122.33 590.79 121.283 592.536 119.536C594.283 117.79 595.33 115.465 595.481 113H595.519C595.67 115.465 596.718 117.79 598.464 119.536C600.21 121.282 602.535 122.33 605 122.481V122.519Z" fill="#EBF0FF"/>
<path d="M58 65.519C55.535 65.6703 53.2104 66.7177 51.464 68.464C49.7177 70.2104 48.6703 72.535 48.519 75H48.481C48.33 72.5349 47.2826 70.2101 45.5362 68.4638C43.7899 66.7174 41.4651 65.67 39 65.519V65.481C41.4651 65.33 43.7899 64.2826 45.5362 62.5362C47.2826 60.7899 48.33 58.4651 48.481 56H48.519C48.6703 58.465 49.7177 60.7896 51.464 62.536C53.2104 64.2823 55.535 65.3297 58 65.481V65.519Z" fill="#EBF0FF"/>
<path d="M39 543.539C33.9402 543.85 29.1686 546 25.5841 549.584C21.9995 553.169 19.8495 557.94 19.539 563H19.461C19.151 557.94 17.0011 553.168 13.4165 549.584C9.83185 545.999 5.05996 543.849 0 543.539L0 543.461C5.05996 543.151 9.83185 541.001 13.4165 537.416C17.0011 533.832 19.151 529.06 19.461 524H19.539C19.8495 529.06 21.9995 533.831 25.5841 537.416C29.1686 541 33.9402 543.15 39 543.461V543.539Z" fill="#FFF3DA"/>
<path d="M647 243.03C643.108 243.269 639.437 244.923 636.68 247.68C633.923 250.437 632.269 254.108 632.03 258H631.97C631.732 254.108 630.078 250.437 627.32 247.68C624.563 244.922 620.892 243.268 617 243.03V242.97C620.892 242.732 624.563 241.078 627.32 238.32C630.078 235.563 631.732 231.892 631.97 228H632.03C632.269 231.892 633.923 235.563 636.68 238.32C639.437 241.077 643.108 242.731 647 242.97V243.03Z" fill="#FFF3DA"/>
<path d="M530 544.03C526.108 544.269 522.437 545.923 519.68 548.68C516.923 551.437 515.269 555.108 515.03 559H514.97C514.732 555.108 513.078 551.437 510.32 548.68C507.563 545.922 503.892 544.268 500 544.03V543.97C503.892 543.732 507.563 542.078 510.32 539.32C513.078 536.563 514.732 532.892 514.97 529H515.03C515.269 532.892 516.923 536.563 519.68 539.32C522.437 542.077 526.108 543.731 530 543.97V544.03Z" fill="#FFF3DA"/>
<path d="M727 368.03C723.108 368.269 719.437 369.923 716.68 372.68C713.923 375.437 712.269 379.108 712.03 383H711.97C711.732 379.108 710.078 375.437 707.32 372.68C704.563 369.922 700.892 368.268 697 368.03V367.97C700.892 367.732 704.563 366.078 707.32 363.32C710.078 360.563 711.732 356.892 711.97 353H712.03C712.269 356.892 713.923 360.563 716.68 363.32C719.437 366.077 723.108 367.731 727 367.97V368.03Z" fill="#FFF3DA"/>
<path d="M416 54.03C412.108 54.2689 408.437 55.9227 405.68 58.6801C402.923 61.4374 401.269 65.1079 401.03 69H400.97C400.732 65.1077 399.078 61.437 396.32 58.6796C393.563 55.9222 389.892 54.2685 386 54.03V53.97C389.892 53.7315 393.563 52.0778 396.32 49.3204C399.078 46.563 400.732 42.8923 400.97 39H401.03C401.269 42.8921 402.923 46.5626 405.68 49.3199C408.437 52.0773 412.108 53.7311 416 53.97V54.03Z" fill="#FFF3DA"/>
<path d="M1006 147.03C1002.11 147.269 998.437 148.923 995.68 151.68C992.923 154.437 991.269 158.108 991.03 162H990.97C990.732 158.108 989.078 154.437 986.32 151.68C983.563 148.922 979.892 147.268 976 147.03V146.97C979.892 146.732 983.563 145.078 986.32 142.32C989.078 139.563 990.732 135.892 990.97 132H991.03C991.269 135.892 992.923 139.563 995.68 142.32C998.437 145.077 1002.11 146.731 1006 146.97V147.03Z" fill="#FFF3DA"/>
</svg>
