<svg width="24" height="24" viewBox="0 0 24 24" fill="none" xmlns="http://www.w3.org/2000/svg">
<path fill-rule="evenodd" clip-rule="evenodd" d="M7.20156 9.59961H16.8016V17.0458C16.8016 17.7935 16.1403 18.3996 15.3246 18.3996H8.67849C7.8628 18.3996 7.20156 17.7935 7.20156 17.0458V9.59961ZM10.4016 11.1996C9.95973 11.1996 9.60156 11.513 9.60156 11.8996V16.0996C9.60156 16.4862 9.95973 16.7996 10.4016 16.7996C10.8434 16.7996 11.2016 16.4862 11.2016 16.0996V11.8996C11.2016 11.513 10.8434 11.1996 10.4016 11.1996ZM13.6016 11.1996C13.1597 11.1996 12.8016 11.513 12.8016 11.8996V16.0996C12.8016 16.4862 13.1597 16.7996 13.6016 16.7996C14.0434 16.7996 14.4016 16.4862 14.4016 16.0996V11.8996C14.4016 11.513 14.0434 11.1996 13.6016 11.1996ZM14.4654 5.59961C14.7032 5.59961 14.9252 5.69987 15.0571 5.86679L15.7939 6.79901L17.6905 6.79961C18.0551 6.79961 18.3557 7.03123 18.3968 7.32964L18.4016 7.39961C18.4016 7.70731 18.127 7.96091 17.7734 7.99557L17.6905 7.99961H6.31267C5.91994 7.99961 5.60156 7.73098 5.60156 7.39961C5.60156 7.09191 5.87608 6.83831 6.22974 6.80365L6.31267 6.79961H8.20921L8.94601 5.86679C9.0779 5.69987 9.29993 5.59961 9.53769 5.59961H14.4654Z" fill="#D4440F"/>
<mask id="mask0_3640_28327" style="mask-type:luminance" maskUnits="userSpaceOnUse" x="5" y="5" width="14" height="14">
<path fill-rule="evenodd" clip-rule="evenodd" d="M7.20156 9.59961H16.8016V17.0458C16.8016 17.7935 16.1403 18.3996 15.3246 18.3996H8.67849C7.8628 18.3996 7.20156 17.7935 7.20156 17.0458V9.59961ZM10.4016 11.1996C9.95973 11.1996 9.60156 11.513 9.60156 11.8996V16.0996C9.60156 16.4862 9.95973 16.7996 10.4016 16.7996C10.8434 16.7996 11.2016 16.4862 11.2016 16.0996V11.8996C11.2016 11.513 10.8434 11.1996 10.4016 11.1996ZM13.6016 11.1996C13.1597 11.1996 12.8016 11.513 12.8016 11.8996V16.0996C12.8016 16.4862 13.1597 16.7996 13.6016 16.7996C14.0434 16.7996 14.4016 16.4862 14.4016 16.0996V11.8996C14.4016 11.513 14.0434 11.1996 13.6016 11.1996ZM14.4654 5.59961C14.7032 5.59961 14.9252 5.69987 15.0571 5.86679L15.7939 6.79901L17.6905 6.79961C18.0551 6.79961 18.3557 7.03123 18.3968 7.32964L18.4016 7.39961C18.4016 7.70731 18.127 7.96091 17.7734 7.99557L17.6905 7.99961H6.31267C5.91994 7.99961 5.60156 7.73098 5.60156 7.39961C5.60156 7.09191 5.87608 6.83831 6.22974 6.80365L6.31267 6.79961H8.20921L8.94601 5.86679C9.0779 5.69987 9.29993 5.59961 9.53769 5.59961H14.4654Z" fill="white"/>
</mask>
<g mask="url(#mask0_3640_28327)">
</g>
</svg>
