<svg xmlns="http://www.w3.org/2000/svg" width="16" height="16" viewBox="0 0 16 16" fill="none">
  <path fill-rule="evenodd" clip-rule="evenodd" d="M8.00039 1.60001C8.88405 1.60001 9.60039 2.31635 9.60039 3.20001C9.60039 4.08366 8.88405 4.80001 8.00039 4.80001C7.11674 4.80001 6.40039 4.08366 6.40039 3.20001C6.40039 2.31635 7.11674 1.60001 8.00039 1.60001ZM8.00039 6.40001C8.88405 6.40001 9.60039 7.11635 9.60039 8.00001C9.60039 8.88366 8.88405 9.60001 8.00039 9.60001C7.11674 9.60001 6.40039 8.88366 6.40039 8.00001C6.40039 7.11635 7.11674 6.40001 8.00039 6.40001ZM8.00039 11.2C8.88405 11.2 9.60039 11.9164 9.60039 12.8C9.60039 13.6837 8.88405 14.4 8.00039 14.4C7.11674 14.4 6.40039 13.6837 6.40039 12.8C6.40039 11.9164 7.11674 11.2 8.00039 11.2Z" fill="#6D82BB"/>
  <mask id="mask0_2535_5784" style="mask-type:luminance" maskUnits="userSpaceOnUse" x="6" y="1" width="4" height="14">
    <path fill-rule="evenodd" clip-rule="evenodd" d="M8.00039 1.60001C8.88405 1.60001 9.60039 2.31635 9.60039 3.20001C9.60039 4.08366 8.88405 4.80001 8.00039 4.80001C7.11674 4.80001 6.40039 4.08366 6.40039 3.20001C6.40039 2.31635 7.11674 1.60001 8.00039 1.60001ZM8.00039 6.40001C8.88405 6.40001 9.60039 7.11635 9.60039 8.00001C9.60039 8.88366 8.88405 9.60001 8.00039 9.60001C7.11674 9.60001 6.40039 8.88366 6.40039 8.00001C6.40039 7.11635 7.11674 6.40001 8.00039 6.40001ZM8.00039 11.2C8.88405 11.2 9.60039 11.9164 9.60039 12.8C9.60039 13.6837 8.88405 14.4 8.00039 14.4C7.11674 14.4 6.40039 13.6837 6.40039 12.8C6.40039 11.9164 7.11674 11.2 8.00039 11.2Z" fill="white"/>
  </mask>
  <g mask="url(#mask0_2535_5784)">
  </g>
</svg>