<svg xmlns="http://www.w3.org/2000/svg" width="20" height="20" viewBox="0 0 20 20" fill="none">
  <path fill-rule="evenodd" clip-rule="evenodd" d="M2.29289 6.29289C2.65338 5.93241 3.22061 5.90468 3.6129 6.2097L3.70711 6.29289L10 12.585L16.2929 6.29289C16.6534 5.93241 17.2206 5.90468 17.6129 6.2097L17.7071 6.29289C18.0676 6.65338 18.0953 7.22061 17.7903 7.6129L17.7071 7.70711L10.7071 14.7071C10.5569 14.8573 10.3708 14.9497 10.1764 14.9844L10.059 14.9983H9.94097C9.74438 14.9867 9.55056 14.9174 9.3871 14.7903L9.29289 14.7071L2.29289 7.70711C1.90237 7.31658 1.90237 6.68342 2.29289 6.29289Z" fill="#6D82BB"/>
  <mask id="mask0_3640_28074" style="mask-type:luminance" maskUnits="userSpaceOnUse" x="2" y="6" width="16" height="9">
    <path fill-rule="evenodd" clip-rule="evenodd" d="M2.29289 6.29289C2.65338 5.93241 3.22061 5.90468 3.6129 6.2097L3.70711 6.29289L10 12.585L16.2929 6.29289C16.6534 5.93241 17.2206 5.90468 17.6129 6.2097L17.7071 6.29289C18.0676 6.65338 18.0953 7.22061 17.7903 7.6129L17.7071 7.70711L10.7071 14.7071C10.5569 14.8573 10.3708 14.9497 10.1764 14.9844L10.059 14.9983H9.94097C9.74438 14.9867 9.55056 14.9174 9.3871 14.7903L9.29289 14.7071L2.29289 7.70711C1.90237 7.31658 1.90237 6.68342 2.29289 6.29289Z" fill="white"/>
  </mask>
  <g mask="url(#mask0_3640_28074)">
  </g>
</svg>