<svg xmlns="http://www.w3.org/2000/svg" width="12" height="12" viewBox="0 0 12 12" fill="none">
<path fill-rule="evenodd" clip-rule="evenodd" d="M6.88568 3.53422L8.58308 5.23162L3.59927 10.0828C3.53552 10.1449 3.45898 10.1918 3.37534 10.2205L3.31136 10.2385L1.54688 10.632L1.75682 8.71862C1.77202 8.58015 1.83492 8.45128 1.93474 8.35411L6.88568 3.53422ZM8.75944 1.71107C8.99463 1.48214 9.37013 1.48467 9.60221 1.71675L10.4563 2.57096C10.6875 2.80842 10.6824 3.18828 10.4449 3.41941L9.44287 4.39402L7.74607 2.69722L8.75944 1.71107Z" fill="#09132E"/>
<mask id="mask0_3743_30194" style="mask-type:luminance" maskUnits="userSpaceOnUse" x="1" y="1" width="10" height="10">
<path fill-rule="evenodd" clip-rule="evenodd" d="M6.88568 3.53422L8.58308 5.23162L3.59927 10.0828C3.53552 10.1449 3.45898 10.1918 3.37534 10.2205L3.31136 10.2385L1.54688 10.632L1.75682 8.71862C1.77202 8.58015 1.83492 8.45128 1.93474 8.35411L6.88568 3.53422ZM8.75944 1.71107C8.99463 1.48214 9.37013 1.48467 9.60221 1.71675L10.4563 2.57096C10.6875 2.80842 10.6824 3.18828 10.4449 3.41941L9.44287 4.39402L7.74607 2.69722L8.75944 1.71107Z" fill="white"/>
</mask>
<g mask="url(#mask0_3743_30194)">
</g>
</svg>