<svg width="24" height="24" viewBox="0 0 24 24" fill="none" xmlns="http://www.w3.org/2000/svg">
<rect x="4" y="4" width="16" height="16"/>
<path fill-rule="evenodd" clip-rule="evenodd" d="M13.1809 8.71278L15.4441 10.976L8.79903 17.4443C8.71403 17.527 8.61197 17.5895 8.50045 17.6278L8.41515 17.6518L6.0625 18.1765L6.34243 15.6253C6.36269 15.4407 6.44656 15.2689 6.57965 15.1393L13.1809 8.71278ZM15.6793 6.28191C15.9928 5.97667 16.4935 5.98005 16.8029 6.28949L17.9418 7.42844C18.25 7.74504 18.2431 8.25153 17.9265 8.55971L16.5905 9.85918L14.3281 7.59678L15.6793 6.28191Z" fill="#6D82BB"/>
<mask id="mask0_3129_25013" style="mask-type:luminance" maskUnits="userSpaceOnUse" x="6" y="6" width="13" height="13">
<path fill-rule="evenodd" clip-rule="evenodd" d="M13.1809 8.71278L15.4441 10.976L8.79903 17.4443C8.71403 17.527 8.61197 17.5895 8.50045 17.6278L8.41515 17.6518L6.0625 18.1765L6.34243 15.6253C6.36269 15.4407 6.44656 15.2689 6.57965 15.1393L13.1809 8.71278ZM15.6793 6.28191C15.9928 5.97667 16.4935 5.98005 16.8029 6.28949L17.9418 7.42844C18.25 7.74504 18.2431 8.25153 17.9265 8.55971L16.5905 9.85918L14.3281 7.59678L15.6793 6.28191Z" fill="white"/>
</mask>
<g mask="url(#mask0_3129_25013)">
</g>
</svg>
