<svg xmlns="http://www.w3.org/2000/svg" width="20" height="20" viewBox="0 0 20 20" fill="none">
  <path fill-rule="evenodd" clip-rule="evenodd" d="M10.6015 2.30047L10.6602 2.38911L18.8943 16.8109C18.9635 16.9322 19 17.0703 19 17.211C19 17.6132 18.7078 17.9452 18.3302 17.9939L18.2342 18H1.76597C1.62943 18 1.49536 17.9624 1.37767 17.8911C1.04348 17.6885 0.913376 17.2653 1.0592 16.9068L1.10586 16.8109L9.33995 2.38911C9.40597 2.27347 9.49952 2.17709 9.61176 2.10906C9.94595 1.90653 10.3682 1.99501 10.6015 2.30047ZM10.0189 13.4286C9.86118 13.4286 9.71498 13.4595 9.57584 13.5201C9.43734 13.5814 9.31615 13.6629 9.21163 13.7665C9.10776 13.8689 9.02568 13.9901 8.96541 14.1267C8.90514 14.2641 8.875 14.4095 8.875 14.5657C8.875 14.7253 8.90514 14.8741 8.96541 15.0134C9.02568 15.1528 9.10776 15.2753 9.21163 15.3803C9.31615 15.4854 9.43734 15.5682 9.57584 15.6274C9.71498 15.6847 9.86118 15.7143 10.0189 15.7143C10.1709 15.7143 10.3132 15.6847 10.446 15.6274C10.578 15.5682 10.6947 15.4854 10.7973 15.3803C10.8999 15.2753 10.9794 15.1528 11.0372 15.0134C11.0955 14.8741 11.125 14.7253 11.125 14.5657C11.125 14.4095 11.0955 14.2641 11.0372 14.1267C10.9794 13.9901 10.8999 13.8689 10.7973 13.7665C10.6947 13.6629 10.578 13.5814 10.446 13.5201C10.3132 13.4595 10.1709 13.4286 10.0189 13.4286ZM10 6.57143C9.37868 6.57143 8.875 6.99782 8.875 7.52381V11.3333C8.875 11.8593 9.37868 12.2857 10 12.2857C10.6213 12.2857 11.125 11.8593 11.125 11.3333V7.52381C11.125 6.99782 10.6213 6.57143 10 6.57143Z" fill="#D4440F"/>
  <mask id="mask0_2164_1633" style="mask-type:luminance" maskUnits="userSpaceOnUse" x="1" y="2" width="18" height="16">
    <path fill-rule="evenodd" clip-rule="evenodd" d="M10.6015 2.30047L10.6602 2.38911L18.8943 16.8109C18.9635 16.9322 19 17.0703 19 17.211C19 17.6132 18.7078 17.9452 18.3302 17.9939L18.2342 18H1.76597C1.62943 18 1.49536 17.9624 1.37767 17.8911C1.04348 17.6885 0.913376 17.2653 1.0592 16.9068L1.10586 16.8109L9.33995 2.38911C9.40597 2.27347 9.49952 2.17709 9.61176 2.10906C9.94595 1.90653 10.3682 1.99501 10.6015 2.30047ZM10.0189 13.4286C9.86118 13.4286 9.71498 13.4595 9.57584 13.5201C9.43734 13.5814 9.31615 13.6629 9.21163 13.7665C9.10776 13.8689 9.02568 13.9901 8.96541 14.1267C8.90514 14.2641 8.875 14.4095 8.875 14.5657C8.875 14.7253 8.90514 14.8741 8.96541 15.0134C9.02568 15.1528 9.10776 15.2753 9.21163 15.3803C9.31615 15.4854 9.43734 15.5682 9.57584 15.6274C9.71498 15.6847 9.86118 15.7143 10.0189 15.7143C10.1709 15.7143 10.3132 15.6847 10.446 15.6274C10.578 15.5682 10.6947 15.4854 10.7973 15.3803C10.8999 15.2753 10.9794 15.1528 11.0372 15.0134C11.0955 14.8741 11.125 14.7253 11.125 14.5657C11.125 14.4095 11.0955 14.2641 11.0372 14.1267C10.9794 13.9901 10.8999 13.8689 10.7973 13.7665C10.6947 13.6629 10.578 13.5814 10.446 13.5201C10.3132 13.4595 10.1709 13.4286 10.0189 13.4286ZM10 6.57143C9.37868 6.57143 8.875 6.99782 8.875 7.52381V11.3333C8.875 11.8593 9.37868 12.2857 10 12.2857C10.6213 12.2857 11.125 11.8593 11.125 11.3333V7.52381C11.125 6.99782 10.6213 6.57143 10 6.57143Z" fill="white"/>
  </mask>
  <g mask="url(#mask0_2164_1633)">
  </g>
</svg>