<svg width="16" height="16" viewBox="0 0 16 16" fill="none" xmlns="http://www.w3.org/2000/svg">
<g clip-path="url(#clip0_3231_22835)">
<circle cx="8" cy="8" r="6" transform="rotate(-90 8 8)" fill="#2D5DE0"/>
<path fill-rule="evenodd" clip-rule="evenodd" d="M11.7241 7.00455C11.8931 6.85787 12 6.64147 12 6.4001C12 5.95827 11.6418 5.6001 11.2 5.6001C10.9586 5.6001 10.7422 5.70699 10.5955 5.87602L10.5941 5.87459L7.19986 9.26884L5.39941 7.46915L5.39888 7.46967C5.25232 7.30432 5.03833 7.2001 4.8 7.2001C4.35817 7.2001 4 7.55827 4 8.0001C4 8.24223 4.10757 8.45923 4.27752 8.60593L6.63432 10.9658L6.63433 10.9658C6.7791 11.1106 6.9791 11.2001 7.2 11.2001C7.42276 11.2001 7.62426 11.1091 7.76931 10.9621L11.7255 7.00596L11.7241 7.00455Z" fill="white"/>
</g>
<defs>
<clipPath id="clip0_3231_22835">
<rect width="16" height="16" fill="white"/>
</clipPath>
</defs>
</svg>
