<svg xmlns="http://www.w3.org/2000/svg" width="16" height="16" viewBox="0 0 16 16" fill="none">
  <path fill-rule="evenodd" clip-rule="evenodd" d="M9.4857 1.59998L13.6002 5.65047V13.12C13.6002 13.8269 13.0182 14.4 12.3002 14.4H4.5002C3.78223 14.4 3.2002 13.8269 3.2002 13.12V2.88015C3.2002 2.17323 3.78223 1.60017 4.5002 1.60017L9.4857 1.59998ZM11.3002 11.2H7.1002L7.01856 11.2054C6.67042 11.2516 6.4002 11.5897 6.4002 12C6.4002 12.4418 6.7136 12.8 7.1002 12.8H11.3002L11.3818 12.7946C11.73 12.7484 12.0002 12.4102 12.0002 12C12.0002 11.5581 11.6868 11.2 11.3002 11.2ZM11.3002 7.99998H7.1002C6.7136 7.99998 6.4002 8.35815 6.4002 8.79998C6.4002 9.2418 6.7136 9.59998 7.1002 9.59998H11.3002C11.6868 9.59998 12.0002 9.2418 12.0002 8.79998C12.0002 8.35815 11.6868 7.99998 11.3002 7.99998ZM8.8002 3.19998V6.39998H12.0002L8.8002 3.19998Z" fill="#6D82BB"/>
  <mask id="mask0_2625_3845" style="mask-type:luminance" maskUnits="userSpaceOnUse" x="3" y="1" width="11" height="14">
    <path fill-rule="evenodd" clip-rule="evenodd" d="M9.4857 1.59998L13.6002 5.65047V13.12C13.6002 13.8269 13.0182 14.4 12.3002 14.4H4.5002C3.78223 14.4 3.2002 13.8269 3.2002 13.12V2.88015C3.2002 2.17323 3.78223 1.60017 4.5002 1.60017L9.4857 1.59998ZM11.3002 11.2H7.1002L7.01856 11.2054C6.67042 11.2516 6.4002 11.5897 6.4002 12C6.4002 12.4418 6.7136 12.8 7.1002 12.8H11.3002L11.3818 12.7946C11.73 12.7484 12.0002 12.4102 12.0002 12C12.0002 11.5581 11.6868 11.2 11.3002 11.2ZM11.3002 7.99998H7.1002C6.7136 7.99998 6.4002 8.35815 6.4002 8.79998C6.4002 9.2418 6.7136 9.59998 7.1002 9.59998H11.3002C11.6868 9.59998 12.0002 9.2418 12.0002 8.79998C12.0002 8.35815 11.6868 7.99998 11.3002 7.99998ZM8.8002 3.19998V6.39998H12.0002L8.8002 3.19998Z" fill="white"/>
  </mask>
  <g mask="url(#mask0_2625_3845)">
  </g>
</svg>