<svg xmlns="http://www.w3.org/2000/svg" width="20" height="20" viewBox="0 0 20 20" fill="none">
  <path fill-rule="evenodd" clip-rule="evenodd" d="M6 2.5C6 2.22386 6.22386 2 6.5 2H13.5C13.7761 2 14 2.22386 14 2.5V3V3.5C14 3.77614 13.7761 4 13.5 4H6.5C6.22386 4 6 3.77614 6 3.5V3V2.5ZM5 3H4.5C3.67157 3 3 3.67157 3 4.5V17.5C3 18.3284 3.67157 19 4.5 19H15.5C16.3284 19 17 18.3284 17 17.5V4.5C17 3.67157 16.3284 3 15.5 3H15V4C15 4.55228 14.5523 5 14 5H6C5.44772 5 5 4.55228 5 4V3ZM15 15H9V17H15V15ZM7 15V17H5V15H7ZM15 11H9V13H15V11ZM7 11V13H5V11H7ZM15 7H9V9H15V7ZM7 7V9H5V7H7Z" fill="#6D82BB"/>
  <mask id="mask0_2605_1382" style="mask-type:luminance" maskUnits="userSpaceOnUse" x="3" y="2" width="14" height="17">
    <path fill-rule="evenodd" clip-rule="evenodd" d="M6 2.5C6 2.22386 6.22386 2 6.5 2H13.5C13.7761 2 14 2.22386 14 2.5V3V3.5C14 3.77614 13.7761 4 13.5 4H6.5C6.22386 4 6 3.77614 6 3.5V3V2.5ZM5 3H4.5C3.67157 3 3 3.67157 3 4.5V17.5C3 18.3284 3.67157 19 4.5 19H15.5C16.3284 19 17 18.3284 17 17.5V4.5C17 3.67157 16.3284 3 15.5 3H15V4C15 4.55228 14.5523 5 14 5H6C5.44772 5 5 4.55228 5 4V3ZM15 15H9V17H15V15ZM7 15V17H5V15H7ZM15 11H9V13H15V11ZM7 11V13H5V11H7ZM15 7H9V9H15V7ZM7 7V9H5V7H7Z" fill="white"/>
  </mask>
  <g mask="url(#mask0_2605_1382)">
  </g>
</svg>