<svg width="24" height="24" viewBox="0 0 24 24" fill="none" xmlns="http://www.w3.org/2000/svg">
<path fill-rule="evenodd" clip-rule="evenodd" d="M21.6 12V17.4C21.6 18.3941 20.7404 19.2 19.68 19.2H4.32002C3.25964 19.2 2.40002 18.3941 2.40002 17.4V12H21.6ZM10.0125 3.6C10.6544 3.6 11.2539 3.9342 11.61 4.4906L12.96 6.6H19.68C20.7404 6.6 21.6 7.49543 21.6 8.6V9.6H2.40002V5.6C2.40002 4.49543 3.25964 3.6 4.32002 3.6H10.0125Z" fill="#6D82BB"/>
<mask id="mask0_2003_1524" style="mask-type:luminance" maskUnits="userSpaceOnUse" x="2" y="3" width="20" height="17">
<path fill-rule="evenodd" clip-rule="evenodd" d="M21.6 12V17.4C21.6 18.3941 20.7404 19.2 19.68 19.2H4.32002C3.25964 19.2 2.40002 18.3941 2.40002 17.4V12H21.6ZM10.0125 3.6C10.6544 3.6 11.2539 3.9342 11.61 4.4906L12.96 6.6H19.68C20.7404 6.6 21.6 7.49543 21.6 8.6V9.6H2.40002V5.6C2.40002 4.49543 3.25964 3.6 4.32002 3.6H10.0125Z" fill="white"/>
</mask>
<g mask="url(#mask0_2003_1524)">
</g>
</svg>
