<svg width="24" height="24" viewBox="0 0 24 24" fill="none" xmlns="http://www.w3.org/2000/svg">
<path fill-rule="evenodd" clip-rule="evenodd" d="M22.7998 12C22.7998 6.03532 17.9127 1.2 11.8841 1.2C11.2143 1.2 10.6713 1.73726 10.6713 2.4C10.6713 3.06274 11.2143 3.6 11.8841 3.6C16.573 3.6 20.3741 7.3608 20.3741 12C20.3741 16.6392 16.573 20.4 11.8841 20.4C8.89845 20.4 6.18179 18.864 4.64603 16.3929C4.29516 15.8284 3.54816 15.6521 2.97757 15.9993C2.40697 16.3464 2.22884 17.0855 2.57971 17.65C4.5524 20.8241 8.04698 22.8 11.8841 22.8C17.9127 22.8 22.7998 17.9647 22.7998 12ZM10.1903 7.58456C9.59933 7.84188 9.08226 8.18403 8.63632 8.6195C8.19311 9.0493 7.84293 9.55829 7.58576 10.1323C7.32859 10.7092 7.20001 11.3199 7.20001 11.976C7.20001 12.6461 7.32859 13.271 7.58576 13.8564C7.84293 14.4417 8.19311 14.9563 8.63632 15.3975C9.08226 15.8386 9.59933 16.1864 10.1903 16.4352C10.7839 16.6756 11.4077 16.8 12.0807 16.8C12.7291 16.8 13.3365 16.6756 13.9028 16.4352C14.4664 16.1864 14.9643 15.8386 15.402 15.3975C15.8397 14.9563 16.179 14.4417 16.4252 13.8564C16.6742 13.271 16.8 12.6461 16.8 11.976C16.8 11.3199 16.6742 10.7092 16.4252 10.1323C16.179 9.55829 15.8397 9.0493 15.402 8.6195C14.9643 8.18403 14.4664 7.84188 13.9028 7.58456C13.3365 7.33007 12.7291 7.2 12.0807 7.2C11.4077 7.2 10.7839 7.33007 10.1903 7.58456Z" fill="#6D82BB"/>
</svg>
