<svg width="24" height="24" viewBox="0 0 24 24" fill="none" xmlns="http://www.w3.org/2000/svg">
<path fill-rule="evenodd" clip-rule="evenodd" d="M8.20002 2.39999C7.64774 2.39999 7.20002 2.84771 7.20002 3.39999V7.19999H3.40002C2.84774 7.19999 2.40002 7.64771 2.40002 8.19999V8.59999C2.40002 9.15228 2.84774 9.59999 3.40002 9.59999H7.20002V14.4H3.40002C2.84774 14.4 2.40002 14.8477 2.40002 15.4V15.8C2.40002 16.3523 2.84774 16.8 3.40002 16.8H7.20002V20.6C7.20002 21.1523 7.64774 21.6 8.20002 21.6H8.60002C9.15231 21.6 9.60002 21.1523 9.60002 20.6V16.8H14.4V20.6C14.4 21.1523 14.8477 21.6 15.4 21.6H15.8C16.3523 21.6 16.8 21.1523 16.8 20.6V16.8H20.6C21.1523 16.8 21.6 16.3523 21.6 15.8V15.4C21.6 14.8477 21.1523 14.4 20.6 14.4H16.8V9.59999H20.6C21.1523 9.59999 21.6 9.15228 21.6 8.59999V8.19999C21.6 7.64771 21.1523 7.19999 20.6 7.19999H16.8V3.39999C16.8 2.84771 16.3523 2.39999 15.8 2.39999H15.4C14.8477 2.39999 14.4 2.84771 14.4 3.39999V7.19999H9.60002V3.39999C9.60002 2.84771 9.15231 2.39999 8.60003 2.39999H8.20002ZM14.4 14.4V9.59999H9.60002V14.4H14.4Z" fill="#6D82BB"/>
</svg>
