<svg width="24" height="24" viewBox="0 0 24 24" fill="none" xmlns="http://www.w3.org/2000/svg">
<path fill-rule="evenodd" clip-rule="evenodd" d="M21.6 4.4C21.6 3.29543 20.7046 2.4 19.6 2.4H4.40002C3.29545 2.4 2.40002 3.29543 2.40002 4.4V16.0048C2.40002 17.1094 3.29545 18.0048 4.40002 18.0048H4.80002V20.6033C4.80002 21.0147 5.26919 21.2501 5.59897 21.0041L9.61995 18.0048H19.6C20.7046 18.0048 21.6 17.1094 21.6 16.0048V4.4ZM7.20002 7C7.20002 6.44772 7.64774 6 8.20002 6H15.8C16.3523 6 16.8 6.44772 16.8 7V7.4C16.8 7.95229 16.3523 8.4 15.8 8.4H8.20002C7.64774 8.4 7.20002 7.95229 7.20002 7.4V7ZM8.20002 10.8C7.64774 10.8 7.20002 11.2477 7.20002 11.8V12.2C7.20002 12.7523 7.64774 13.2 8.20002 13.2H15.8C16.3523 13.2 16.8 12.7523 16.8 12.2V11.8C16.8 11.2477 16.3523 10.8 15.8 10.8H8.20002Z" fill="#6D82BB"/>
</svg>
