<svg xmlns="http://www.w3.org/2000/svg" width="12" height="12" viewBox="0 0 12 12" fill="none">
  <path fill-rule="evenodd" clip-rule="evenodd" d="M10.7992 3.2C10.7992 2.09543 9.90379 1.2 8.79922 1.2H3.19922C2.09465 1.2 1.19922 2.09543 1.19922 3.2V7.80242C1.19922 8.46516 1.73648 9.00242 2.39922 9.00242V9.80328C2.39922 10.2147 2.86838 10.4501 3.19817 10.2041L4.80918 9.00242H8.79922C9.90379 9.00242 10.7992 8.10699 10.7992 7.00242V3.2ZM3.59922 3.6C3.59922 3.26863 3.86785 3 4.19922 3H7.79922C8.13059 3 8.39922 3.26863 8.39922 3.6C8.39922 3.93137 8.13059 4.2 7.79922 4.2H4.19922C3.86785 4.2 3.59922 3.93137 3.59922 3.6ZM4.19922 5.4C3.86785 5.4 3.59922 5.66863 3.59922 6C3.59922 6.33137 3.86785 6.6 4.19922 6.6H7.79922C8.13059 6.6 8.39922 6.33137 8.39922 6C8.39922 5.66863 8.13059 5.4 7.79922 5.4H4.19922Z" fill="white"/>
</svg>