<svg xmlns="http://www.w3.org/2000/svg" width="16" height="16" viewBox="0 0 16 16" fill="none">
  <path fill-rule="evenodd" clip-rule="evenodd" d="M4.19961 1.60001C3.64732 1.60001 3.19961 2.04772 3.19961 2.60001V2.40001H2.39961C1.95778 2.40001 1.59961 2.75818 1.59961 3.20001C1.59961 3.64183 1.95778 4.00001 2.39961 4.00001H3.19961V4.80001H2.39961C1.95778 4.80001 1.59961 5.15818 1.59961 5.60001C1.59961 6.04183 1.95778 6.40001 2.39961 6.40001H3.19961V7.20001H2.39961C1.95778 7.20001 1.59961 7.55818 1.59961 8.00001C1.59961 8.44183 1.95778 8.80001 2.39961 8.80001H3.19961V9.60001H2.39961C1.95778 9.60001 1.59961 9.95818 1.59961 10.4C1.59961 10.8418 1.95778 11.2 2.39961 11.2H3.19961V12H2.39961C1.95778 12 1.59961 12.3582 1.59961 12.8C1.59961 13.2418 1.95778 13.6 2.39961 13.6H3.19961V13.4C3.19961 13.9523 3.64732 14.4 4.19961 14.4H11.9996V1.60001H4.19961ZM12.7996 1.60001V14.4H13.3996C13.9519 14.4 14.3996 13.9523 14.3996 13.4V2.60001C14.3996 2.04772 13.9519 1.60001 13.3996 1.60001H12.7996Z" fill="#6D82BB"/>
  <mask id="mask0_2632_6993" style="mask-type:luminance" maskUnits="userSpaceOnUse" x="1" y="1" width="14" height="14">
    <path fill-rule="evenodd" clip-rule="evenodd" d="M4.19961 1.60001C3.64732 1.60001 3.19961 2.04772 3.19961 2.60001V2.40001H2.39961C1.95778 2.40001 1.59961 2.75818 1.59961 3.20001C1.59961 3.64183 1.95778 4.00001 2.39961 4.00001H3.19961V4.80001H2.39961C1.95778 4.80001 1.59961 5.15818 1.59961 5.60001C1.59961 6.04183 1.95778 6.40001 2.39961 6.40001H3.19961V7.20001H2.39961C1.95778 7.20001 1.59961 7.55818 1.59961 8.00001C1.59961 8.44183 1.95778 8.80001 2.39961 8.80001H3.19961V9.60001H2.39961C1.95778 9.60001 1.59961 9.95818 1.59961 10.4C1.59961 10.8418 1.95778 11.2 2.39961 11.2H3.19961V12H2.39961C1.95778 12 1.59961 12.3582 1.59961 12.8C1.59961 13.2418 1.95778 13.6 2.39961 13.6H3.19961V13.4C3.19961 13.9523 3.64732 14.4 4.19961 14.4H11.9996V1.60001H4.19961ZM12.7996 1.60001V14.4H13.3996C13.9519 14.4 14.3996 13.9523 14.3996 13.4V2.60001C14.3996 2.04772 13.9519 1.60001 13.3996 1.60001H12.7996Z" fill="white"/>
  </mask>
  <g mask="url(#mask0_2632_6993)">
  </g>
</svg>