<svg xmlns="http://www.w3.org/2000/svg" width="16" height="16" viewBox="0 0 16 16" fill="none">
  <path fill-rule="evenodd" clip-rule="evenodd" d="M2.39961 4.80001H13.5996C14.0414 4.80001 14.3996 4.44184 14.3996 4.00001C14.3996 3.55818 14.0414 3.20001 13.5996 3.20001H2.39961C1.95778 3.20001 1.59961 3.55818 1.59961 4.00001C1.59961 4.44184 1.95778 4.80001 2.39961 4.80001ZM2.39961 8.80001H13.5996C14.0414 8.80001 14.3996 8.44184 14.3996 8.00001C14.3996 7.55818 14.0414 7.20001 13.5996 7.20001H2.39961C1.95778 7.20001 1.59961 7.55818 1.59961 8.00001C1.59961 8.44184 1.95778 8.80001 2.39961 8.80001ZM13.5996 12.8H2.39961C1.95778 12.8 1.59961 12.4418 1.59961 12C1.59961 11.5582 1.95778 11.2 2.39961 11.2H13.5996C14.0414 11.2 14.3996 11.5582 14.3996 12C14.3996 12.4418 14.0414 12.8 13.5996 12.8Z" fill="#6D82BB"/>
</svg>