<svg xmlns="http://www.w3.org/2000/svg" width="20" height="20" viewBox="0 0 20 20" fill="none">
  <path fill-rule="evenodd" clip-rule="evenodd" d="M8.75 2C8.75 1.44772 9.19772 1 9.75 1H10.25C10.8023 1 11.25 1.44772 11.25 2V2.74964L19.7316 8.29596C19.8986 8.40513 20 8.59658 20 8.80256C20 9.13251 19.7444 9.39998 19.429 9.39998H12.7951C12.3794 9.84582 11.8497 10.1916 11.25 10.3951V15.4001H13.75V9.40001H16.25V15.4001H18.5C19.3284 15.4001 20 16.0716 20 16.9001V17.5001C20 18.3285 19.3284 19.0001 18.5 19.0001H1.5C0.671573 19.0001 0 18.3285 0 17.5001V16.9001C0 16.0716 0.671573 15.4001 1.5 15.4001H3.75V9.40001H6.25V15.4001H8.75V10.3951C8.15027 10.1916 7.62055 9.84582 7.20488 9.39998H0.571072C0.374198 9.39998 0.191212 9.29387 0.0868687 9.11919C-0.0802676 8.8394 0.00102687 8.47083 0.268445 8.29596L8.75 2.74969V2ZM11.25 7.00006C11.25 6.33732 10.6904 5.80006 10 5.80006C9.30964 5.80006 8.75 6.33732 8.75 7.00006C8.75 7.66281 9.30964 8.20006 10 8.20006C10.6904 8.20006 11.25 7.66281 11.25 7.00006Z" fill="#6D82BB"/>
</svg>