<svg xmlns="http://www.w3.org/2000/svg" width="16" height="16" viewBox="0 0 16 16" fill="none">
  <g clip-path="url(#clip0_3231_1734)">
    <path fill-rule="evenodd" clip-rule="evenodd" d="M3.51953 0C2.41496 0 1.51953 0.895431 1.51953 2V14C1.51953 15.1046 2.41496 16 3.51953 16H12.4795C13.5841 16 14.4795 15.1046 14.4795 14L14.4795 4L10.4795 0H3.51953Z" fill="#DF1919"/>
    <path d="M10.5969 10.7754C10.057 10.7353 9.53724 10.5348 9.11734 10.1739C8.29754 10.3543 7.51764 10.6149 6.73784 10.9358C6.11804 12.0385 5.53814 12.5999 5.03824 12.5999C4.93824 12.5999 4.81834 12.5799 4.73834 12.5197C4.51834 12.4195 4.39844 12.1989 4.39844 11.9784C4.39844 11.7979 4.43844 11.2967 6.33794 10.4746C6.77794 9.67258 7.11774 8.85058 7.39774 7.98848C7.15774 7.50728 6.63794 6.32428 6.99774 5.72288C7.11774 5.50228 7.35774 5.38198 7.61774 5.40208C7.81764 5.40208 8.01754 5.50228 8.13754 5.66268C8.39754 6.02358 8.37754 6.78548 8.03754 7.90828C8.35754 8.50891 8.77666 9.0512 9.27724 9.51228C9.69724 9.43198 10.117 9.37188 10.5369 9.37188C11.4767 9.39188 11.6167 9.83298 11.5967 10.0937C11.5967 10.7754 10.9368 10.7754 10.5969 10.7754ZM4.99834 12.0184L5.05834 11.9984C5.33824 11.8982 5.55814 11.6977 5.71814 11.437C5.41814 11.5573 5.17824 11.7578 4.99834 12.0185V12.0184ZM7.65764 6.00358H7.59764C7.57764 6.00358 7.53764 6.00358 7.51764 6.02358C7.43764 6.36438 7.49764 6.72528 7.63764 7.04608C7.75764 6.70528 7.75764 6.34438 7.65764 6.00358ZM7.79764 8.91078L7.77764 8.95078L7.75764 8.93078C7.57764 9.39198 7.37764 9.85308 7.15774 10.2942L7.19774 10.2742V10.3142C7.64239 10.153 8.09647 10.019 8.55744 9.91318L8.53744 9.89318H8.59744C8.29744 9.59238 8.01754 9.25158 7.79764 8.91078ZM10.5169 9.97338C10.3369 9.97338 10.177 9.97338 9.99704 10.0134C10.197 10.1137 10.397 10.1538 10.5969 10.1739C10.7369 10.1939 10.8769 10.1739 10.9968 10.1338C10.9968 10.0736 10.9168 9.97338 10.5169 9.97338Z" fill="white"/>
    <path d="M14.4805 4L10.4805 -3.49691e-07C10.4805 2.20914 12.2713 4 14.4805 4Z" fill="#FDB8B8"/>
  </g>
  <defs>
    <clipPath id="clip0_3231_1734">
      <rect width="16" height="16" fill="white"/>
    </clipPath>
  </defs>
</svg>