
<svg xmlns="http://www.w3.org/2000/svg" width="24" height="24" viewBox="0 0 24 24" fill="none">
  <path fill-rule="evenodd" clip-rule="evenodd" d="M5.80886 9.85639C6.95448 10.7506 8.41244 11.2857 10 11.2857C11.5876 11.2857 13.0455 10.7506 14.1905 9.85725C16.4104 11.1752 17.9112 13.5099 17.9962 16.1883L18 16.4286V18C18 18.5128 17.614 18.9355 17.1166 18.9933L17 19H3C2.48716 19 2.06449 18.614 2.00673 18.1166L2 18V16.4286C2 13.65 3.52346 11.2145 5.80886 9.85639ZM14.8333 13.8571H10.5C10.2545 13.8571 10.0504 14.034 10.0081 14.2673L10 14.3571V14.6429C10 14.8883 10.1769 15.0925 10.4101 15.1348L10.5 15.1429H14.8333C15.0788 15.1429 15.2829 14.966 15.3253 14.7327L15.3333 14.6429V14.3571C15.3333 14.081 15.1095 13.8571 14.8333 13.8571ZM10 1C12.2091 1 14 2.7269 14 4.85714C14 6.98738 12.2091 8.71429 10 8.71429C7.79086 8.71429 6 6.98738 6 4.85714C6 2.7269 7.79086 1 10 1Z" fill="#6D82BB"/>
</svg>