<svg xmlns="http://www.w3.org/2000/svg" width="16" height="16" viewBox="0 0 16 16" fill="none">
  <path fill-rule="evenodd" clip-rule="evenodd" d="M4.64718 7.88512C5.56369 8.6005 6.73005 9.02857 8.0001 9.02857C9.27015 9.02857 10.4365 8.6005 11.3525 7.88581C13.1284 8.94014 14.3291 10.808 14.3971 12.9506L14.4001 13.1429V14.4C14.4001 14.8103 14.0913 15.1484 13.6934 15.1946L13.6001 15.2H2.4001C1.98983 15.2 1.65169 14.8912 1.60548 14.4933L1.6001 14.4V13.1429C1.6001 10.92 2.81886 8.97157 4.64718 7.88512ZM11.8668 11.0857H8.4001C8.20373 11.0857 8.04041 11.2272 8.00654 11.4138L8.0001 11.4857V11.7143C8.0001 11.9107 8.1416 12.074 8.3282 12.1078L8.4001 12.1143H11.8668C12.0631 12.1143 12.2264 11.9728 12.2603 11.7862L12.2668 11.7143V11.4857C12.2668 11.2648 12.0877 11.0857 11.8668 11.0857ZM8.0001 0.800003C9.76741 0.800003 11.2001 2.18152 11.2001 3.88572C11.2001 5.58991 9.76741 6.97143 8.0001 6.97143C6.23279 6.97143 4.8001 5.58991 4.8001 3.88572C4.8001 2.18152 6.23279 0.800003 8.0001 0.800003Z" fill="#2B3247"/>
</svg>