<svg xmlns="http://www.w3.org/2000/svg" width="20" height="20" viewBox="0 0 20 20" fill="none">
  <path fill-rule="evenodd" clip-rule="evenodd" d="M15 6.8C15 3.6 12.5 2 10 2C7.5 2 5 3.6 5 6.8C5 8.4 5.625 9.2 6.25 10C6.875 10.8 7.5 11.6 7.5 13.2C7.5 13.455 7.5 13.6287 7.58095 13.747C7.75397 14 8.29682 14 10 14C11.7032 14 12.246 14 12.4191 13.747C12.5 13.6287 12.5 13.455 12.5 13.2C12.5 11.6 13.125 10.8 13.75 10C14.375 9.2 15 8.4 15 6.8ZM8.33 15.6C7.8716 15.6 7.5 15.9716 7.5 16.43V16.8462C7.5 17.0722 7.59216 17.2885 7.7552 17.445L7.85157 17.5375C8.1607 17.8343 8.57263 18 9.00117 18H10.9988C11.4274 18 11.8393 17.8343 12.1484 17.5375L12.2448 17.445C12.4078 17.2885 12.5 17.0722 12.5 16.8462V16.43C12.5 15.9716 12.1284 15.6 11.67 15.6H8.33Z" fill="#6D82BB"/>
  <mask id="mask0_2568_2260" style="mask-type:luminance" maskUnits="userSpaceOnUse" x="5" y="2" width="10" height="16">
    <path fill-rule="evenodd" clip-rule="evenodd" d="M15 6.8C15 3.6 12.5 2 10 2C7.5 2 5 3.6 5 6.8C5 8.4 5.625 9.2 6.25 10C6.875 10.8 7.5 11.6 7.5 13.2C7.5 13.455 7.5 13.6287 7.58095 13.747C7.75397 14 8.29682 14 10 14C11.7032 14 12.246 14 12.4191 13.747C12.5 13.6287 12.5 13.455 12.5 13.2C12.5 11.6 13.125 10.8 13.75 10C14.375 9.2 15 8.4 15 6.8ZM8.33 15.6C7.8716 15.6 7.5 15.9716 7.5 16.43V16.8462C7.5 17.0722 7.59216 17.2885 7.7552 17.445L7.85157 17.5375C8.1607 17.8343 8.57263 18 9.00117 18H10.9988C11.4274 18 11.8393 17.8343 12.1484 17.5375L12.2448 17.445C12.4078 17.2885 12.5 17.0722 12.5 16.8462V16.43C12.5 15.9716 12.1284 15.6 11.67 15.6H8.33Z" fill="white"/>
  </mask>
  <g mask="url(#mask0_2568_2260)">
  </g>
</svg>