<svg xmlns="http://www.w3.org/2000/svg" width="24" height="24" viewBox="0 0 24 24" fill="none">
  <path fill-rule="evenodd" clip-rule="evenodd" d="M10.4292 2.40039C9.89878 2.40039 9.39007 2.6111 9.01499 2.98618L5.38657 6.6146C5.01149 6.98968 4.80078 7.49839 4.80078 8.02882V19.6004C4.80078 20.705 5.69621 21.6004 6.80078 21.6004H17.2008C18.3054 21.6004 19.2008 20.705 19.2008 19.6004V8.02882C19.2008 7.49838 18.9901 6.98968 18.615 6.6146L14.9866 2.98618C14.6115 2.6111 14.1028 2.40039 13.5724 2.40039H10.4292ZM12.0008 10.2004C12.9949 10.2004 13.8008 9.3945 13.8008 8.40039C13.8008 7.40628 12.9949 6.60039 12.0008 6.60039C11.0067 6.60039 10.2008 7.40628 10.2008 8.40039C10.2008 9.3945 11.0067 10.2004 12.0008 10.2004ZM9.15078 13.2004C8.73657 13.2004 8.40078 13.5362 8.40078 13.9504V14.2504C8.40078 14.6646 8.73657 15.0004 9.15078 15.0004H14.8508C15.265 15.0004 15.6008 14.6646 15.6008 14.2504V13.9504C15.6008 13.5362 15.265 13.2004 14.8508 13.2004H9.15078ZM8.40078 17.5504C8.40078 17.1362 8.73657 16.8004 9.15078 16.8004H14.8508C15.265 16.8004 15.6008 17.1362 15.6008 17.5504V17.8504C15.6008 18.2646 15.265 18.6004 14.8508 18.6004H9.15078C8.73657 18.6004 8.40078 18.2646 8.40078 17.8504V17.5504Z" fill="#6D82BB"/>
</svg>