<svg xmlns="http://www.w3.org/2000/svg" width="18" height="18" viewBox="0 0 18 18" fill="none">
  <path fill-rule="evenodd" clip-rule="evenodd" d="M16.1998 9L4.4522 8.2019C3.58878 8.13677 3.17372 8.10374 2.83789 7.94137C2.43814 7.72946 2.11852 7.4038 1.95916 6.98089C1.7998 6.6222 1.7998 6.18279 1.7998 5.30304C1.7998 3.88663 1.7998 3.16926 2.07171 2.71333C2.37512 2.19318 2.91802 1.85101 3.52575 1.80239C4.03714 1.76936 4.66018 2.07943 5.92335 2.73076L13.1954 6.42772C14.906 7.30747 15.7685 7.74689 16.0404 8.33308C16.1521 8.54408 16.1998 8.7725 16.1998 9Z" fill="#C9CDD6"/>
  <path fill-rule="evenodd" clip-rule="evenodd" d="M16.1998 9C16.1998 9.22892 16.1359 9.44037 16.0396 9.65274C15.7677 10.2568 14.9053 10.6806 13.1949 11.5622L5.92374 15.2838C4.66072 15.92 4.03776 16.2307 3.52644 16.1976C2.91878 16.1489 2.37595 15.806 2.07167 15.2838C1.7998 14.8269 1.7998 14.1088 1.7998 12.6884C1.7998 11.8068 1.7998 11.3664 1.95914 11.0079C2.11938 10.5997 2.43896 10.2568 2.83776 10.0453C3.17355 9.88258 3.58855 9.84948 4.45187 9.78421L16.1998 9Z" fill="#C9CDD6"/>
  <mask id="mask0_2568_2268" style="mask-type:luminance" maskUnits="userSpaceOnUse" x="1" y="1" width="17" height="16">
    <path fill-rule="evenodd" clip-rule="evenodd" d="M14.1512 7.33697C15.2217 7.87219 15.7569 8.13981 15.9286 8.50194C16.0781 8.81708 16.0781 9.18269 15.9286 9.49783C15.7569 9.85997 15.2217 10.1276 14.1512 10.6628L4.49072 15.4931C3.59979 15.9385 3.15433 16.1613 2.79222 16.1077C2.47603 16.061 2.19304 15.8861 2.00985 15.6242C1.80006 15.3243 1.80006 14.8262 1.80006 13.8301V11.7727C1.80006 11.16 1.80006 10.8537 1.91638 10.6136C2.01879 10.4023 2.18283 10.227 2.38687 10.1107C2.61863 9.97872 2.92428 9.95834 3.53559 9.91759L17.2994 9L3.53559 8.08241C2.92428 8.04165 2.61863 8.02128 2.38687 7.88924C2.18283 7.773 2.01879 7.59767 1.91638 7.38635C1.80006 7.14632 1.80006 6.83999 1.80006 6.22732L1.80006 4.16964C1.80006 3.17355 1.80006 2.67551 2.00985 2.37556C2.19304 2.11364 2.47603 1.93874 2.79222 1.89203C3.15433 1.83853 3.59979 2.06126 4.49072 2.50672L14.1512 7.33697Z" fill="white"/>
  </mask>
  <g mask="url(#mask0_2568_2268)">
  </g>
</svg>