<svg xmlns="http://www.w3.org/2000/svg" width="18" height="18" viewBox="0 0 18 18" fill="none">
  <path fill-rule="evenodd" clip-rule="evenodd" d="M16.1998 8.99999L4.4522 8.20188C3.58878 8.13675 3.17372 8.10373 2.83789 7.94135C2.43814 7.72944 2.11852 7.40378 1.95916 6.98088C1.7998 6.62219 1.7998 6.18277 1.7998 5.30302C1.7998 3.88662 1.7998 3.16924 2.07171 2.71331C2.37512 2.19317 2.91802 1.85099 3.52575 1.80237C4.03714 1.76935 4.66018 2.07942 5.92335 2.73074L13.1954 6.42771C14.906 7.30746 15.7685 7.74687 16.0404 8.33307C16.1521 8.54406 16.1998 8.77248 16.1998 8.99999Z" fill="white"/>
  <path fill-rule="evenodd" clip-rule="evenodd" d="M16.1998 9C16.1998 9.22892 16.1359 9.44037 16.0396 9.65274C15.7677 10.2568 14.9053 10.6806 13.1949 11.5622L5.92374 15.2838C4.66072 15.92 4.03776 16.2307 3.52644 16.1976C2.91878 16.1489 2.37595 15.806 2.07167 15.2838C1.7998 14.8269 1.7998 14.1088 1.7998 12.6884C1.7998 11.8068 1.7998 11.3664 1.95914 11.0079C2.11938 10.5997 2.43896 10.2568 2.83776 10.0453C3.17355 9.88258 3.58855 9.84948 4.45187 9.78421L16.1998 9Z" fill="white"/>
  <mask id="mask0_2632_3898" style="mask-type:luminance" maskUnits="userSpaceOnUse" x="1" y="1" width="17" height="16">
    <path fill-rule="evenodd" clip-rule="evenodd" d="M14.1512 7.33695C15.2217 7.87218 15.7569 8.13979 15.9286 8.50193C16.0781 8.81707 16.0781 9.18268 15.9286 9.49782C15.7569 9.85995 15.2217 10.1276 14.1512 10.6628L4.49072 15.493C3.59979 15.9385 3.15433 16.1612 2.79222 16.1077C2.47603 16.061 2.19304 15.8861 2.00985 15.6242C1.80006 15.3243 1.80006 14.8262 1.80006 13.8301V11.7727C1.80006 11.16 1.80006 10.8537 1.91638 10.6136C2.01879 10.4023 2.18283 10.227 2.38687 10.1107C2.61863 9.9787 2.92428 9.95833 3.53559 9.91757L17.2994 8.99999L3.53559 8.08239C2.92428 8.04164 2.61863 8.02126 2.38687 7.88923C2.18283 7.77299 2.01879 7.59765 1.91638 7.38633C1.80006 7.14631 1.80006 6.83997 1.80006 6.22731L1.80006 4.16963C1.80006 3.17354 1.80006 2.6755 2.00985 2.37554C2.19304 2.11362 2.47603 1.93873 2.79222 1.89201C3.15433 1.83851 3.59979 2.06124 4.49072 2.50671L14.1512 7.33695Z" fill="white"/>
  </mask>
  <g mask="url(#mask0_2632_3898)">
  </g>
</svg>