<svg xmlns="http://www.w3.org/2000/svg" width="20" height="20" viewBox="0 0 20 20" fill="none">
  <path fill-rule="evenodd" clip-rule="evenodd" d="M11.6202 1.66L11.6196 3.52906C12.2291 3.68586 12.8047 3.92703 13.3332 4.23935L14.6553 2.91722L17.0029 5.26481L15.6808 6.58692C15.9931 7.11548 16.2343 7.69108 16.3911 8.30054L18.2602 8.3V11.62L16.3909 11.6203C16.2341 12.2295 15.993 12.8048 15.6808 13.3331L17.0029 14.6552L14.6553 17.0028L13.3332 15.6807C12.8047 15.993 12.2291 16.2341 11.6196 16.391L11.6202 18.26H8.30016L8.29986 16.3907C7.69071 16.2339 7.11539 15.9928 6.58707 15.6807L5.26497 17.0028L2.91737 14.6552L4.23951 13.3331C3.92732 12.8048 3.68624 12.2295 3.52942 11.6203L1.66016 11.62V8.3L3.52921 8.30054C3.68602 7.69108 3.92718 7.11548 4.23951 6.58692L2.91737 5.26481L5.26497 2.91722L6.58707 4.23935C7.11539 3.92717 7.69071 3.68608 8.29986 3.52927L8.30016 1.66H11.6202ZM9.96016 6.64C8.12657 6.64 6.64016 8.12642 6.64016 9.96C6.64016 11.7936 8.12657 13.28 9.96016 13.28C11.7937 13.28 13.2802 11.7936 13.2802 9.96C13.2802 8.12642 11.7937 6.64 9.96016 6.64Z" fill="#6D82BB"/>
  <mask id="mask0_2568_2247" style="mask-type:luminance" maskUnits="userSpaceOnUse" x="1" y="1" width="18" height="18">
    <path fill-rule="evenodd" clip-rule="evenodd" d="M11.6202 1.66L11.6196 3.52906C12.2291 3.68586 12.8047 3.92703 13.3332 4.23935L14.6553 2.91722L17.0029 5.26481L15.6808 6.58692C15.9931 7.11548 16.2343 7.69108 16.3911 8.30054L18.2602 8.3V11.62L16.3909 11.6203C16.2341 12.2295 15.993 12.8048 15.6808 13.3331L17.0029 14.6552L14.6553 17.0028L13.3332 15.6807C12.8047 15.993 12.2291 16.2341 11.6196 16.391L11.6202 18.26H8.30016L8.29986 16.3907C7.69071 16.2339 7.11539 15.9928 6.58707 15.6807L5.26497 17.0028L2.91737 14.6552L4.23951 13.3331C3.92732 12.8048 3.68624 12.2295 3.52942 11.6203L1.66016 11.62V8.3L3.52921 8.30054C3.68602 7.69108 3.92718 7.11548 4.23951 6.58692L2.91737 5.26481L5.26497 2.91722L6.58707 4.23935C7.11539 3.92717 7.69071 3.68608 8.29986 3.52927L8.30016 1.66H11.6202ZM9.96016 6.64C8.12657 6.64 6.64016 8.12642 6.64016 9.96C6.64016 11.7936 8.12657 13.28 9.96016 13.28C11.7937 13.28 13.2802 11.7936 13.2802 9.96C13.2802 8.12642 11.7937 6.64 9.96016 6.64Z" fill="white"/>
  </mask>
  <g mask="url(#mask0_2568_2247)">
  </g>
</svg>