<svg width="24" height="24" viewBox="0 0 24 24" fill="none" xmlns="http://www.w3.org/2000/svg">
<mask id="mask0_2003_1512" style="mask-type:alpha" maskUnits="userSpaceOnUse" x="2" y="2" width="20" height="20">
<path d="M19.6809 6.43069C20.8032 6.86073 21.6 7.94823 21.6 9.22185V18.612C21.6 20.2622 20.2623 21.6 18.612 21.6H9.22187C7.94826 21.6 6.86076 20.8032 6.43071 19.6808L12.7294 19.68C13.4426 19.68 14.1295 19.425 14.6683 18.9655L14.8422 18.8048L18.8049 14.8422C19.3092 14.3379 19.6146 13.6718 19.6707 12.966L19.68 12.7294L19.6809 6.43069ZM15.5467 2.4C16.7691 2.4 17.76 3.39094 17.76 4.61333L17.7588 12.9588L13.956 12.96C13.4483 12.96 13.0292 13.34 12.9678 13.8311L12.96 13.956L12.9588 17.7588L4.61336 17.76C3.39097 17.76 2.40002 16.7691 2.40002 15.5467V4.61333C2.40002 3.39094 3.39097 2.4 4.61336 2.4H15.5467Z" fill="white"/>
</mask>
<g mask="url(#mask0_2003_1512)">
<path d="M19.6809 6.43069C20.8032 6.86073 21.6 7.94823 21.6 9.22185V18.612C21.6 20.2622 20.2623 21.6 18.612 21.6H9.22187C7.94826 21.6 6.86076 20.8032 6.43071 19.6808L12.7294 19.68C13.4426 19.68 14.1295 19.425 14.6683 18.9655L14.8422 18.8048L18.8049 14.8422C19.3092 14.3379 19.6146 13.6718 19.6707 12.966L19.68 12.7294L19.6809 6.43069ZM15.5467 2.4C16.7691 2.4 17.76 3.39094 17.76 4.61333L17.7588 12.9588L13.956 12.96C13.4483 12.96 13.0292 13.34 12.9678 13.8311L12.96 13.956L12.9588 17.7588L4.61336 17.76C3.39097 17.76 2.40002 16.7691 2.40002 15.5467V4.61333C2.40002 3.39094 3.39097 2.4 4.61336 2.4H15.5467Z" fill="#6D82BB"/>
</g>
</svg>
