<svg xmlns="http://www.w3.org/2000/svg" width="20" height="20" viewBox="0 0 20 20" fill="none">
  <path fill-rule="evenodd" clip-rule="evenodd" d="M13.0039 0.894784C18.0376 2.57133 20.7742 8.00722 19.116 13.0347C17.4577 18.0633 12.0327 20.7807 6.99794 19.1052C1.96313 17.4287 -0.773477 11.9938 0.884782 6.96528C2.54411 1.93673 7.97017 -0.780686 13.0039 0.894784ZM9.99618 11.2C6.56766 11.2 4.64022 13.4092 4.00116 16.0038C4.90807 16.87 6.02693 17.5537 7.31385 17.9703C10.463 18.989 13.783 18.1377 16.0001 16.0361C15.3687 13.4282 13.4395 11.2 9.99618 11.2ZM10.0004 2.79999C8.01217 2.79999 6.40039 4.41177 6.40039 6.39999C6.40039 8.38822 8.01217 9.99999 10.0004 9.99999C11.9886 9.99999 13.6004 8.38822 13.6004 6.39999C13.6004 4.41177 11.9886 2.79999 10.0004 2.79999Z" fill="#6D82BB"/>
</svg>