<svg width="24" height="24" viewBox="0 0 24 24" fill="none" xmlns="http://www.w3.org/2000/svg">
<g id="Icons">
<path id="Shape" fill-rule="evenodd" clip-rule="evenodd" d="M14.2282 2.4L20.4 8.47575V19.68C20.4 20.7404 19.5269 21.6 18.45 21.6H6.74999C5.67303 21.6 4.79999 20.7404 4.79999 19.68V4.32026C4.79999 3.25989 5.67303 2.40029 6.74999 2.40029L14.2282 2.4ZM16.95 16.8H10.65L10.5275 16.8081C10.0053 16.8774 9.59999 17.3846 9.59999 18C9.59999 18.6627 10.0701 19.2 10.65 19.2H16.95L17.0724 19.1919C17.5946 19.1226 18 18.6154 18 18C18 17.3373 17.5299 16.8 16.95 16.8ZM16.95 12H10.65C10.0701 12 9.59999 12.5373 9.59999 13.2C9.59999 13.8627 10.0701 14.4 10.65 14.4H16.95C17.5299 14.4 18 13.8627 18 13.2C18 12.5373 17.5299 12 16.95 12ZM13.2 4.8V9.6H18L13.2 4.8Z" fill="#6D82BB"/>
<mask id="mask0_2274_3581" style="mask-type:luminance" maskUnits="userSpaceOnUse" x="4" y="2" width="17" height="20">
<path id="Shape_2" fill-rule="evenodd" clip-rule="evenodd" d="M14.2282 2.4L20.4 8.47575V19.68C20.4 20.7404 19.5269 21.6 18.45 21.6H6.74999C5.67303 21.6 4.79999 20.7404 4.79999 19.68V4.32026C4.79999 3.25989 5.67303 2.40029 6.74999 2.40029L14.2282 2.4ZM16.95 16.8H10.65L10.5275 16.8081C10.0053 16.8774 9.59999 17.3846 9.59999 18C9.59999 18.6627 10.0701 19.2 10.65 19.2H16.95L17.0724 19.1919C17.5946 19.1226 18 18.6154 18 18C18 17.3373 17.5299 16.8 16.95 16.8ZM16.95 12H10.65C10.0701 12 9.59999 12.5373 9.59999 13.2C9.59999 13.8627 10.0701 14.4 10.65 14.4H16.95C17.5299 14.4 18 13.8627 18 13.2C18 12.5373 17.5299 12 16.95 12ZM13.2 4.8V9.6H18L13.2 4.8Z" fill="white"/>
</mask>
<g mask="url(#mask0_2274_3581)">
</g>
</g>
</svg>
