<svg xmlns="http://www.w3.org/2000/svg" width="24" height="24" viewBox="0 0 24 24" fill="none">
  <path fill-rule="evenodd" clip-rule="evenodd" d="M0 11.9998C0 15.9763 2.86538 19.1998 6.4 19.1998H17.6C21.1346 19.1998 24 15.9763 24 11.9998C24 8.02335 21.1346 4.7998 17.6 4.7998H6.4C2.86538 4.7998 0 8.02335 0 11.9998ZM12 11.9998C12 14.6508 9.85097 16.7998 7.2 16.7998C4.54903 16.7998 2.4 14.6508 2.4 11.9998C2.4 9.34884 4.54903 7.1998 7.2 7.1998C9.85097 7.1998 12 9.34884 12 11.9998ZM15.7989 9.59872C16.0641 9.3335 16.4941 9.3335 16.7593 9.59872L18.2 11.0394L19.6407 9.59872C19.9059 9.3335 20.3359 9.3335 20.6011 9.59872C20.8663 9.86393 20.8663 10.2939 20.6011 10.5592L19.1604 11.9998L20.6011 13.4405C20.8663 13.7057 20.8663 14.1357 20.6011 14.4009C20.3359 14.6661 19.9059 14.6661 19.6407 14.4009L18.2 12.9602L16.7593 14.4009C16.4941 14.6661 16.0641 14.6661 15.7989 14.4009C15.5337 14.1357 15.5337 13.7057 15.7989 13.4405L17.2396 11.9998L15.7989 10.5592C15.5337 10.2939 15.5337 9.86393 15.7989 9.59872Z" fill="#9095A3"/>
  <mask id="mask0_3062_42935" style="mask-type:luminance" maskUnits="userSpaceOnUse" x="0" y="4" width="24" height="16">
    <path fill-rule="evenodd" clip-rule="evenodd" d="M0 11.9998C0 15.9763 2.86538 19.1998 6.4 19.1998H17.6C21.1346 19.1998 24 15.9763 24 11.9998C24 8.02335 21.1346 4.7998 17.6 4.7998H6.4C2.86538 4.7998 0 8.02335 0 11.9998ZM12 11.9998C12 14.6508 9.85097 16.7998 7.2 16.7998C4.54903 16.7998 2.4 14.6508 2.4 11.9998C2.4 9.34884 4.54903 7.1998 7.2 7.1998C9.85097 7.1998 12 9.34884 12 11.9998ZM15.7989 9.59872C16.0641 9.3335 16.4941 9.3335 16.7593 9.59872L18.2 11.0394L19.6407 9.59872C19.9059 9.3335 20.3359 9.3335 20.6011 9.59872C20.8663 9.86393 20.8663 10.2939 20.6011 10.5592L19.1604 11.9998L20.6011 13.4405C20.8663 13.7057 20.8663 14.1357 20.6011 14.4009C20.3359 14.6661 19.9059 14.6661 19.6407 14.4009L18.2 12.9602L16.7593 14.4009C16.4941 14.6661 16.0641 14.6661 15.7989 14.4009C15.5337 14.1357 15.5337 13.7057 15.7989 13.4405L17.2396 11.9998L15.7989 10.5592C15.5337 10.2939 15.5337 9.86393 15.7989 9.59872Z" fill="white"/>
  </mask>
  <g mask="url(#mask0_3062_42935)">
  </g>
</svg>