<svg xmlns="http://www.w3.org/2000/svg" width="24" height="24" viewBox="0 0 24 24" fill="none">
  <path fill-rule="evenodd" clip-rule="evenodd" d="M24 11.9998C24 8.02335 21.1346 4.7998 17.6 4.7998H6.4C2.86538 4.7998 0 8.02335 0 11.9998C0 15.9763 2.86538 19.1998 6.4 19.1998H17.6C21.1346 19.1998 24 15.9763 24 11.9998ZM12 11.9998C12 9.34884 14.149 7.1998 16.8 7.1998C19.451 7.1998 21.6 9.34884 21.6 11.9998C21.6 14.6508 19.451 16.7998 16.8 16.7998C14.149 16.7998 12 14.6508 12 11.9998ZM8.29374 9.82501C8.59257 9.52474 9.07706 9.52474 9.37588 9.82501C9.67471 10.1253 9.67471 10.6121 9.37588 10.9124L6.12947 14.1746C5.83064 14.4749 5.34615 14.4749 5.04733 14.1746L3.42412 12.5435C3.12529 12.2432 3.12529 11.7564 3.42412 11.4561C3.72294 11.1558 4.20743 11.1558 4.50626 11.4561L5.5884 12.5435L8.29374 9.82501Z" fill="#2D5DE0"/>
</svg>