<svg xmlns="http://www.w3.org/2000/svg" width="12" height="12" viewBox="0 0 12 12" fill="none">
  <path fill-rule="evenodd" clip-rule="evenodd" d="M8.54106 3.57774C8.75194 3.79403 8.75194 4.14471 8.54106 4.361C8.33017 4.5773 7.98826 4.5773 7.77738 4.361L6.53922 3.0905V7.84634C6.53922 8.15223 6.29745 8.40019 5.99922 8.40019C5.72229 8.40019 5.49404 8.18639 5.46285 7.91093L5.45922 7.84634V3.09105L4.22106 4.361C4.02639 4.56066 3.72009 4.57602 3.50825 4.40708L3.45738 4.361C3.26272 4.16135 3.24775 3.84718 3.41246 3.62991L3.45738 3.57774L5.61738 1.36232L5.66148 1.32178L5.66382 1.31986C5.6699 1.31491 5.67381 1.31184 5.67775 1.30884C5.69081 1.29896 5.70423 1.28967 5.71806 1.281C5.72457 1.27687 5.73117 1.27293 5.73782 1.26915C5.7485 1.26313 5.75952 1.25736 5.77074 1.25197C5.77993 1.24756 5.78927 1.24341 5.7987 1.23955C5.80937 1.23517 5.82005 1.23119 5.83088 1.22754C5.83892 1.22488 5.84723 1.22231 5.85558 1.21996C5.86722 1.21663 5.87894 1.21375 5.89079 1.21127C5.9002 1.20935 5.90961 1.20765 5.91905 1.2062C5.92933 1.20459 5.93998 1.20329 5.95073 1.20231C5.96358 1.20115 5.97617 1.20045 5.98877 1.20021L6.00913 1.2002L6.02838 1.20075C6.034 1.20124 6.0369 1.20144 6.0398 1.20166L6.04404 1.20186L6.07966 1.20621L6.10761 1.21131C6.1195 1.21375 6.13121 1.21663 6.14277 1.21989C6.15121 1.22231 6.15952 1.22488 6.16778 1.22765C6.17839 1.23119 6.18907 1.23517 6.19959 1.23948C6.20917 1.24341 6.21851 1.24756 6.22776 1.25198C6.23892 1.25736 6.24994 1.26313 6.26073 1.26927C6.26727 1.27293 6.27387 1.27687 6.2804 1.28096C6.29421 1.28967 6.30763 1.29896 6.3206 1.30883L6.32756 1.31417C6.34615 1.32881 6.36403 1.34486 6.38106 1.36232L6.33942 1.32426L6.35159 1.33425L6.37992 1.36026L6.38106 1.36232L8.54106 3.57774ZM10.3192 9.6002C10.5843 9.6002 10.7992 9.86882 10.7992 10.2002C10.7992 10.5316 10.5843 10.8002 10.3192 10.8002H1.67922C1.41412 10.8002 1.19922 10.5316 1.19922 10.2002C1.19922 9.86882 1.41412 9.6002 1.67922 9.6002H10.3192Z" fill="#EBF0FF"/>
  <mask id="mask0_3570_28996" style="mask-type:luminance" maskUnits="userSpaceOnUse" x="1" y="1" width="10" height="10">
    <path fill-rule="evenodd" clip-rule="evenodd" d="M8.54106 3.57774C8.75194 3.79403 8.75194 4.14471 8.54106 4.361C8.33017 4.5773 7.98826 4.5773 7.77738 4.361L6.53922 3.0905V7.84634C6.53922 8.15223 6.29745 8.40019 5.99922 8.40019C5.72229 8.40019 5.49404 8.18639 5.46285 7.91093L5.45922 7.84634V3.09105L4.22106 4.361C4.02639 4.56066 3.72009 4.57602 3.50825 4.40708L3.45738 4.361C3.26272 4.16135 3.24775 3.84718 3.41246 3.62991L3.45738 3.57774L5.61738 1.36232L5.66148 1.32178L5.66382 1.31986C5.6699 1.31491 5.67381 1.31184 5.67775 1.30884C5.69081 1.29896 5.70423 1.28967 5.71806 1.281C5.72457 1.27687 5.73117 1.27293 5.73782 1.26915C5.7485 1.26313 5.75952 1.25736 5.77074 1.25197C5.77993 1.24756 5.78927 1.24341 5.7987 1.23955C5.80937 1.23517 5.82005 1.23119 5.83088 1.22754C5.83892 1.22488 5.84723 1.22231 5.85558 1.21996C5.86722 1.21663 5.87894 1.21375 5.89079 1.21127C5.9002 1.20935 5.90961 1.20765 5.91905 1.2062C5.92933 1.20459 5.93998 1.20329 5.95073 1.20231C5.96358 1.20115 5.97617 1.20045 5.98877 1.20021L6.00913 1.2002L6.02838 1.20075C6.034 1.20124 6.0369 1.20144 6.0398 1.20166L6.04404 1.20186L6.07966 1.20621L6.10761 1.21131C6.1195 1.21375 6.13121 1.21663 6.14277 1.21989C6.15121 1.22231 6.15952 1.22488 6.16778 1.22765C6.17839 1.23119 6.18907 1.23517 6.19959 1.23948C6.20917 1.24341 6.21851 1.24756 6.22776 1.25198C6.23892 1.25736 6.24994 1.26313 6.26073 1.26927C6.26727 1.27293 6.27387 1.27687 6.2804 1.28096C6.29421 1.28967 6.30763 1.29896 6.3206 1.30883L6.32756 1.31417C6.34615 1.32881 6.36403 1.34486 6.38106 1.36232L6.33942 1.32426L6.35159 1.33425L6.37992 1.36026L6.38106 1.36232L8.54106 3.57774ZM10.3192 9.6002C10.5843 9.6002 10.7992 9.86882 10.7992 10.2002C10.7992 10.5316 10.5843 10.8002 10.3192 10.8002H1.67922C1.41412 10.8002 1.19922 10.5316 1.19922 10.2002C1.19922 9.86882 1.41412 9.6002 1.67922 9.6002H10.3192Z" fill="white"/>
  </mask>
  <g mask="url(#mask0_3570_28996)">
  </g>
</svg>