<svg xmlns="http://www.w3.org/2000/svg" width="12" height="12" viewBox="0 0 12 12" fill="none">
  <path fill-rule="evenodd" clip-rule="evenodd" d="M8.54106 3.57754C8.75194 3.79383 8.75194 4.14451 8.54106 4.36081C8.33017 4.5771 7.98826 4.5771 7.77738 4.36081L6.53922 3.0903V7.84615C6.53922 8.15203 6.29745 8.4 5.99922 8.4C5.72229 8.4 5.49404 8.18619 5.46285 7.91074L5.45922 7.84615V3.09086L4.22106 4.36081C4.02639 4.56046 3.72009 4.57582 3.50825 4.40688L3.45738 4.36081C3.26272 4.16115 3.24775 3.84699 3.41246 3.62972L3.45738 3.57754L5.61738 1.36213L5.66148 1.32158L5.66382 1.31967C5.6699 1.31471 5.67381 1.31165 5.67775 1.30865C5.69081 1.29877 5.70423 1.28948 5.71806 1.28081C5.72457 1.27668 5.73117 1.27274 5.73782 1.26896C5.7485 1.26293 5.75952 1.25716 5.77074 1.25178C5.77993 1.24736 5.78927 1.24322 5.7987 1.23936C5.80937 1.23498 5.82005 1.23099 5.83088 1.22735C5.83892 1.22468 5.84723 1.22212 5.85558 1.21976C5.86722 1.21643 5.87894 1.21355 5.89079 1.21108C5.9002 1.20916 5.90961 1.20746 5.91905 1.20601C5.92933 1.20439 5.93998 1.20309 5.95073 1.20211C5.96358 1.20096 5.97617 1.20026 5.98877 1.20001L6.00913 1.2L6.02838 1.20055C6.034 1.20104 6.0369 1.20124 6.0398 1.20146L6.04404 1.20166L6.07966 1.20601L6.10761 1.21112C6.1195 1.21355 6.13121 1.21643 6.14277 1.21969C6.15121 1.22212 6.15952 1.22468 6.16778 1.22746C6.17839 1.23099 6.18907 1.23498 6.19959 1.23929C6.20917 1.24322 6.21851 1.24736 6.22776 1.25179C6.23892 1.25716 6.24994 1.26293 6.26073 1.26907C6.26727 1.27274 6.27387 1.27668 6.2804 1.28077C6.29421 1.28948 6.30763 1.29877 6.3206 1.30864L6.32756 1.31397C6.34615 1.32861 6.36403 1.34467 6.38106 1.36213L6.33942 1.32406L6.35159 1.33405L6.37992 1.36006L6.38106 1.36213L8.54106 3.57754ZM10.3192 9.6C10.5843 9.6 10.7992 9.86863 10.7992 10.2C10.7992 10.5314 10.5843 10.8 10.3192 10.8H1.67922C1.41412 10.8 1.19922 10.5314 1.19922 10.2C1.19922 9.86863 1.41412 9.6 1.67922 9.6H10.3192Z" fill="#2B3247"/>
  <mask id="mask0_3231_18677" style="mask-type:luminance" maskUnits="userSpaceOnUse" x="1" y="1" width="10" height="10">
    <path fill-rule="evenodd" clip-rule="evenodd" d="M8.54106 3.57754C8.75194 3.79383 8.75194 4.14451 8.54106 4.36081C8.33017 4.5771 7.98826 4.5771 7.77738 4.36081L6.53922 3.0903V7.84615C6.53922 8.15203 6.29745 8.4 5.99922 8.4C5.72229 8.4 5.49404 8.18619 5.46285 7.91074L5.45922 7.84615V3.09086L4.22106 4.36081C4.02639 4.56046 3.72009 4.57582 3.50825 4.40688L3.45738 4.36081C3.26272 4.16115 3.24775 3.84699 3.41246 3.62972L3.45738 3.57754L5.61738 1.36213L5.66148 1.32158L5.66382 1.31967C5.6699 1.31471 5.67381 1.31165 5.67775 1.30865C5.69081 1.29877 5.70423 1.28948 5.71806 1.28081C5.72457 1.27668 5.73117 1.27274 5.73782 1.26896C5.7485 1.26293 5.75952 1.25716 5.77074 1.25178C5.77993 1.24736 5.78927 1.24322 5.7987 1.23936C5.80937 1.23498 5.82005 1.23099 5.83088 1.22735C5.83892 1.22468 5.84723 1.22212 5.85558 1.21976C5.86722 1.21643 5.87894 1.21355 5.89079 1.21108C5.9002 1.20916 5.90961 1.20746 5.91905 1.20601C5.92933 1.20439 5.93998 1.20309 5.95073 1.20211C5.96358 1.20096 5.97617 1.20026 5.98877 1.20001L6.00913 1.2L6.02838 1.20055C6.034 1.20104 6.0369 1.20124 6.0398 1.20146L6.04404 1.20166L6.07966 1.20601L6.10761 1.21112C6.1195 1.21355 6.13121 1.21643 6.14277 1.21969C6.15121 1.22212 6.15952 1.22468 6.16778 1.22746C6.17839 1.23099 6.18907 1.23498 6.19959 1.23929C6.20917 1.24322 6.21851 1.24736 6.22776 1.25179C6.23892 1.25716 6.24994 1.26293 6.26073 1.26907C6.26727 1.27274 6.27387 1.27668 6.2804 1.28077C6.29421 1.28948 6.30763 1.29877 6.3206 1.30864L6.32756 1.31397C6.34615 1.32861 6.36403 1.34467 6.38106 1.36213L6.33942 1.32406L6.35159 1.33405L6.37992 1.36006L6.38106 1.36213L8.54106 3.57754ZM10.3192 9.6C10.5843 9.6 10.7992 9.86863 10.7992 10.2C10.7992 10.5314 10.5843 10.8 10.3192 10.8H1.67922C1.41412 10.8 1.19922 10.5314 1.19922 10.2C1.19922 9.86863 1.41412 9.6 1.67922 9.6H10.3192Z" fill="white"/>
  </mask>
  <g mask="url(#mask0_3231_18677)">
  </g>
</svg>