<svg width="20" height="20" viewBox="0 0 20 20" fill="none" xmlns="http://www.w3.org/2000/svg">
<path fill-rule="evenodd" clip-rule="evenodd" d="M13.0035 0.894784C18.0373 2.57133 20.7739 8.00722 19.1156 13.0347C17.4574 18.0633 12.0324 20.7807 6.99757 19.1052C1.96277 17.4287 -0.773843 11.9938 0.884416 6.96528C2.54375 1.93673 7.9698 -0.780686 13.0035 0.894784ZM9.99582 11.2C6.56729 11.2 4.63986 13.4092 4.00079 16.0038C4.9077 16.87 6.02656 17.5537 7.31349 17.9703C10.4627 18.989 13.7827 18.1377 15.9997 16.0361C15.3684 13.4282 13.4391 11.2 9.99582 11.2ZM10 2.79999C8.0118 2.79999 6.40002 4.41177 6.40002 6.39999C6.40002 8.38822 8.0118 9.99999 10 9.99999C11.9882 9.99999 13.6 8.38822 13.6 6.39999C13.6 4.41177 11.9882 2.79999 10 2.79999Z" fill="#6D82BB"/>
</svg>
